<svg width="169" height="199" viewBox="0 0 169 199" xmlns="http://www.w3.org/2000/svg">
    <g fill="none" fill-rule="evenodd">
        <path d="M166.189 147.19l-18.737 10.819-24.225 13.985L80.263 196.8c-1.508.87-3.497 1.306-5.486 1.306-1.99 0-3.978-.437-5.488-1.307l-7.73-4.464-35.2-20.322L7.62 161.194c-1.51-.871-2.264-2.02-2.264-3.167 0-1.148.755-2.297 2.263-3.168l42.963-24.805v-.001l24.224-13.986 18.74-10.817c3.016-1.741 7.953-1.743 10.97 0l18.741 10.817 35.199 20.324h.001l7.733 4.465c3.016 1.743 3.015 4.592-.002 6.335" fill-opacity=".5" fill="#FBE1B2"/>
        <path d="M4.866 133.527c-.927-.905-1.89-2.456-1.89-5.019V59.391c0-3.273 2.32-7.291 5.155-8.928L25.732 40.3l22.756-13.138 22.756-13.138L88.845 3.862c1.487-.859 2.828-.892 3.77-.265l.011-.002 3.561 2.369L94 7.219v72.496L71.244 92.853 48.49 105.991l-22.757 13.137v.002L6.548 130.206v4.441l-.99-.66-.692-.46zM8.61 140.6c-1.134-.655-2.062-2.26-2.062-3.571v-2.381l6.388-1.47-.239 2.683 16.607-9.59 22.756-13.136 45.512-26.278 45.512 26.278 15.443 8.915v-.746h4.284v4.945h-.003c.01 1.087-.695 2.175-2.123 3l-17.601 10.162-22.756 13.137-22.756 13.138-17.602 10.162c-2.834 1.637-7.473 1.637-10.309.001l-17.6-10.163-22.757-13.138L8.61 140.6z" stroke="#33475C" stroke-width="5" stroke-linecap="round" stroke-linejoin="round"/>
        <path d="M29.304 147.786l22.756 13.138 17.601 10.163c2.836 1.636 7.475 1.636 10.31 0l17.6-10.163 22.757-13.138 22.756-13.137 17.601-10.162c2.835-1.637 2.835-4.315 0-5.952l-17.601-10.162-45.512-26.277-45.512 26.277-22.756 13.137-22.756 13.138 22.756 13.138" stroke="#33475C" stroke-width="5" stroke-linecap="round" stroke-linejoin="round"/>
        <path d="M74.815 95.234l-22.754 13.138-22.756 13.137v.001L6.547 134.647V61.772c0-3.273 2.32-7.291 5.155-8.928L29.305 42.68l22.754-13.138 22.756-13.138L92.417 6.243c2.835-1.637 5.154-.298 5.154 2.975v72.878L74.815 95.234" stroke="#33475C" stroke-width="5" stroke-linecap="round" stroke-linejoin="round"/>
        <path d="M89.229 15.668c1.701-.983 3.093-.179 3.093 1.785v57.605c0 1.964-1.392 4.375-3.093 5.357l-74.338 42.92c-1.701.983-3.093.178-3.093-1.786V63.944c0-1.964 1.392-4.375 3.093-5.357l74.338-42.92zM78.729 144.835c-1.702-.98-1.702-2.589 0-3.571l29.73-17.164c1.7-.982 4.485-.982 6.186 0l16.57 9.566c1.702.983 1.702 2.59 0 3.572l-29.73 17.164c-1.7.982-4.485.982-6.186 0l-16.57-9.567z" stroke="#33475C" stroke-width="5" stroke-linecap="round" stroke-linejoin="round"/>
        <path d="M78.729 144.835c-1.702-.98-1.702-2.589 0-3.571l29.73-17.164c1.7-.982 4.485-.982 6.186 0l16.57 9.566c1.702.983 1.702 2.59 0 3.572l-29.73 17.164c-1.7.982-4.485.982-6.186 0l-16.57-9.567zM30.698 134.506c-1.701-.982-1.701-2.59 0-3.571L93.332 94.77c1.703-.982 4.486-.982 6.187 0l23.104 13.34c1.701.982 1.701 2.589 0 3.571l-62.635 36.162c-1.7.982-4.484.982-6.186 0l-23.104-13.338z" stroke="#33475C" stroke-width="5" stroke-linecap="round" stroke-linejoin="round"/>
        <path d="M30.698 134.506c-1.701-.982-1.701-2.59 0-3.571L93.332 94.77c1.703-.982 4.486-.982 6.187 0l23.104 13.34c1.701.982 1.701 2.589 0 3.571l-62.635 36.162c-1.7.982-4.484.982-6.186 0l-23.104-13.338zM18.719 127.621l10.586-6.112 22.755-13.137 35.48-20.484 4.005 2.31-68.821 39.735zM89.229 15.668c1.701-.983 3.093-.179 3.093 1.785v57.605c0 1.964-1.392 4.375-3.093 5.357l-74.338 42.918c-1.701.983-3.093.18-3.093-1.786V63.944c0-1.964 1.392-4.375 3.093-5.357l74.338-42.92z" stroke="#33475C" stroke-width="5" stroke-linecap="round" stroke-linejoin="round"/>
        <path d="M25.983 64.43l-7.03 4.058c-.397.23-.723-.016-.723-.545s.326-1.15.723-1.379l7.03-4.058c.396-.23.72.015.72.545s-.324 1.15-.72 1.38zM19.62 82.162l-.556.322c-.458.264-.833.047-.833-.482s.375-1.179.833-1.443l.556-.32c.458-.266.833-.05.833.48 0 .529-.375 1.179-.833 1.443zM28.482 91.105l-1.612.93c-.396.23-.722-.015-.722-.545s.326-1.15.722-1.378l1.612-.931c.397-.23.722.015.722.545 0 .529-.325 1.15-.722 1.379zM34.316 87.737l-3.418 1.974c-.398.23-.723-.016-.723-.547 0-.528.325-1.15.723-1.378l3.418-1.973c.396-.23.721.015.721.545 0 .529-.325 1.15-.721 1.379zM36.815 86.294l-.361.21c-.398.228-.722-.018-.722-.547 0-.53.324-1.15.722-1.378l.361-.21c.398-.23.722.016.722.546 0 .529-.324 1.15-.722 1.379zM41.4 83.647l-2.447 1.413c-.396.229-.72-.017-.72-.545 0-.531.324-1.15.72-1.38l2.447-1.412c.396-.23.721.016.721.545 0 .53-.325 1.15-.721 1.379zM43.132 82.326c0 .178-.124.393-.278.481-.153.09-.278.018-.278-.16 0-.177.125-.392.278-.48.154-.09.278-.017.278.16zM52.511 77.232l-8.28 4.78c-.396.23-.722-.016-.722-.544v-.002c0-.53.326-1.15.723-1.38l8.28-4.778c.396-.23.72.015.72.545 0 .529-.324 1.15-.72 1.379zM55.428 75.548l-.363.21c-.396.228-.721-.017-.721-.547s.325-1.15.721-1.378l.363-.21c.397-.23.72.016.72.547 0 .528-.323 1.15-.72 1.378zM61.4 72.1l-3.278 1.893c-.398.229-.722-.017-.722-.545 0-.53.324-1.15.722-1.379l3.278-1.894c.397-.23.722.016.722.547 0 .528-.325 1.15-.722 1.378zM63.133 70.78c0 .176-.124.391-.278.48-.153.09-.278.017-.278-.159 0-.179.125-.394.278-.482.154-.088.278-.017.278.16zM72.512 65.684l-8.28 4.78c-.396.23-.72-.016-.72-.544 0-.531.324-1.15.72-1.38l8.28-4.78c.397-.23.722.016.722.545 0 .53-.325 1.15-.722 1.379zM23.82 70.364l-.277.161c-.46.264-.835.049-.835-.482 0-.529.375-1.177.835-1.442l.277-.16c.459-.266.832-.048.832.48 0 .53-.373 1.18-.832 1.443zM20.315 72.388l-1.251.722c-.458.265-.833.047-.833-.481 0-.529.375-1.179.833-1.444l1.251-.72c.458-.266.832-.05.832.48s-.374 1.18-.832 1.443zM29.348 67.173l-2.585 1.493c-.397.229-.72-.017-.72-.546s.323-1.15.72-1.379l2.585-1.492c.397-.23.72.016.72.546 0 .528-.323 1.15-.72 1.378zM31.76 65.78l-.361.21c-.398.228-.722-.018-.722-.547 0-.53.324-1.15.722-1.378l.362-.21c.397-.23.721.016.721.547 0 .528-.324 1.15-.721 1.378zM40.32 60.838l-6.334 3.657c-.396.23-.723-.015-.723-.545s.327-1.15.723-1.38l6.335-3.657c.396-.23.721.017.721.547 0 .528-.325 1.15-.721 1.378zM42.456 59.605l-.363.21c-.396.228-.721-.017-.721-.546 0-.53.325-1.15.721-1.379l.363-.209c.397-.23.722.015.722.545 0 .529-.325 1.15-.722 1.379zM44.678 58.322l-.362.21c-.398.229-.721-.017-.721-.546 0-.53.323-1.15.721-1.379l.362-.21c.398-.23.721.016.721.547 0 .528-.323 1.15-.721 1.378zM53.376 53.3l-6.472 3.738c-.398.229-.723-.016-.723-.545 0-.531.325-1.15.723-1.381l6.472-3.736c.398-.23.722.016.722.546 0 .528-.324 1.15-.722 1.378zM55.652 51.988l-.364.208c-.396.23-.721-.017-.721-.545 0-.53.325-1.15.721-1.379l.364-.21c.396-.23.72.016.72.546s-.324 1.15-.72 1.38zM58.013 50.624l-.363.21c-.397.228-.722-.017-.722-.547s.325-1.15.722-1.379l.363-.21c.396-.229.72.018.72.547s-.324 1.15-.72 1.379zM65.429 74.46l-3.28 1.894c-.396.229-.721-.016-.721-.546s.325-1.15.721-1.379l3.28-1.893c.396-.23.72.016.72.546 0 .528-.324 1.15-.72 1.378zM67.16 73.14c0 .177-.124.392-.278.48-.153.09-.278.018-.278-.159s.125-.393.278-.482c.154-.088.278-.016.278.16zM28.482 95.791l-1.612.931c-.396.23-.722-.015-.722-.545 0-.529.326-1.15.722-1.379l1.612-.93c.397-.23.722.015.722.544 0 .53-.325 1.15-.722 1.38zM34.316 92.423l-3.418 1.974c-.398.23-.723-.016-.723-.547 0-.528.325-1.15.723-1.378l3.418-1.973c.396-.23.721.016.721.546 0 .528-.325 1.15-.721 1.378zM36.815 90.98l-.361.21c-.398.228-.722-.017-.722-.547s.324-1.15.722-1.378l.361-.21c.398-.23.722.016.722.547 0 .528-.324 1.15-.722 1.378zM41.4 88.333l-2.447 1.413c-.396.229-.72-.016-.72-.545 0-.53.324-1.15.72-1.38L41.4 86.41c.396-.23.721.016.721.546s-.325 1.15-.721 1.378zM43.132 87.014c0 .176-.124.391-.278.48-.153.09-.278.017-.278-.16s.125-.393.278-.481c.154-.09.278-.017.278.16zM56.262 79.753L44.232 86.7c-.396.228-.722-.017-.722-.546 0-.53.326-1.15.722-1.38l12.03-6.945c.396-.23.72.017.72.547 0 .528-.324 1.15-.72 1.378zM59.455 77.908l-.361.21c-.398.228-.722-.017-.722-.545 0-.53.324-1.15.722-1.379l.361-.21c.398-.23.722.016.722.546s-.324 1.15-.722 1.378zM49.756 88.196l-1.612.93c-.396.23-.722-.016-.722-.546 0-.528.326-1.15.722-1.378l1.612-.931c.397-.23.721.015.721.545s-.324 1.15-.72 1.38zM55.59 84.828l-3.418 1.973c-.398.23-.723-.016-.723-.546s.325-1.15.723-1.38l3.418-1.972c.396-.23.72.015.72.545s-.324 1.15-.72 1.38zM30.01 99.596l-3.14 1.812c-.397.23-.722-.015-.722-.545 0-.529.325-1.149.721-1.379l3.14-1.813c.398-.23.722.016.722.547 0 .528-.324 1.15-.721 1.378zM34.316 97.11l-2.446 1.412c-.397.23-.722-.016-.722-.545 0-.53.325-1.15.722-1.38l2.446-1.411c.396-.23.721.015.721.545s-.325 1.15-.721 1.378zM45.16 90.849l-8.975 5.182c-.396.229-.722-.016-.722-.546s.326-1.15.722-1.38l8.974-5.18c.398-.23.722.016.722.545s-.324 1.15-.722 1.379zM23.344 84.699l-4.39 2.536c-.397.228-.724-.017-.724-.547 0-.528.327-1.15.723-1.378l4.39-2.535c.397-.23.72.016.72.545s-.323 1.15-.72 1.379zM29.594 81.09l-3.696 2.135c-.397.228-.722-.017-.722-.547 0-.528.325-1.15.722-1.378l3.696-2.133c.396-.23.721.015.721.545 0 .528-.325 1.15-.721 1.378zM31.955 79.728l-.363.21c-.397.228-.722-.017-.722-.547s.325-1.15.722-1.379l.363-.21c.396-.229.721.016.721.547 0 .529-.325 1.15-.721 1.379zM34.316 78.364l-.363.21c-.397.228-.72-.017-.72-.546 0-.53.323-1.15.72-1.378l.363-.21c.396-.23.721.016.721.546 0 .528-.325 1.15-.721 1.378zM24.936 83.459c0 .177-.123.392-.277.48-.154.09-.279.018-.279-.159s.125-.393.279-.482c.154-.088.277-.016.277.16zM38.767 75.794l-1.611.93c-.397.23-.722-.015-.722-.545s.325-1.15.722-1.38l1.611-.93c.398-.229.722.016.722.546 0 .529-.324 1.15-.721 1.379zM45.481 71.918l-4.39 2.534c-.397.23-.722-.017-.722-.545 0-.529.325-1.15.722-1.379l4.39-2.534c.397-.23.722.015.722.545 0 .529-.325 1.15-.722 1.379zM25.176 74.268l-6.112 3.529c-.458.265-.833.048-.833-.481 0-.53.375-1.18.833-1.443l6.112-3.528c.458-.266.833-.05.833.48 0 .529-.375 1.178-.833 1.443zM32.26 70.178l-4.305 2.486c-.46.266-.834.049-.834-.48 0-.53.374-1.18.834-1.444l4.304-2.485c.459-.266.834-.05.834.48s-.375 1.18-.834 1.443zM38.049 66.836l-3.14 1.813c-.398.23-.722-.015-.722-.546 0-.529.324-1.15.721-1.379l3.14-1.812c.397-.23.722.016.722.545 0 .53-.325 1.15-.721 1.38zM42.354 64.35l-2.445 1.412c-.398.23-.722-.016-.722-.545 0-.53.324-1.15.722-1.38l2.445-1.412c.398-.23.721.017.721.547 0 .528-.323 1.15-.721 1.378zM53.198 58.09l-8.973 5.181c-.398.229-.723-.017-.723-.545 0-.53.325-1.15.723-1.38l8.973-5.181c.397-.23.72.015.72.546 0 .529-.323 1.15-.72 1.379zM62.02 52.996l-5.362 3.097c-.397.229-.721-.016-.721-.546s.324-1.15.721-1.38l5.362-3.095c.398-.23.722.015.722.545s-.324 1.15-.722 1.379zM69.706 48.56l-5.085 2.935c-.396.228-.721-.017-.721-.545 0-.531.325-1.15.721-1.38l5.085-2.936c.397-.23.721.016.721.547 0 .528-.324 1.15-.721 1.378zM71.678 47.421c-.459.264-.834.048-.834-.48 0-.532.375-1.18.834-1.445.458-.265.833-.048.833.481s-.375 1.179-.833 1.444zM84.29 40.139L73.927 46.12c-.396.23-.722-.016-.722-.545s.326-1.15.722-1.379l10.363-5.982c.397-.23.72.015.72.545 0 .529-.323 1.15-.72 1.379zM25.427 88.183l-2.586 1.492c-.396.228-.72-.017-.72-.545 0-.529.324-1.15.72-1.379l2.586-1.493c.396-.23.72.016.72.547 0 .528-.324 1.15-.72 1.378zM27.84 86.79l-.363.209c-.397.228-.721-.017-.721-.545 0-.53.324-1.15.721-1.379l.362-.21c.398-.23.722.016.722.546 0 .528-.324 1.15-.722 1.378zM36.4 81.848l-6.335 3.656c-.397.231-.723-.015-.723-.545 0-.529.326-1.15.723-1.379l6.334-3.657c.397-.23.722.016.722.546s-.325 1.15-.722 1.38zM38.535 80.615l-.363.21c-.397.228-.722-.017-.722-.546 0-.53.325-1.15.722-1.38l.363-.208c.396-.23.721.016.721.545s-.325 1.15-.721 1.379zM40.757 79.331l-.362.21c-.398.229-.722-.017-.722-.545 0-.53.324-1.15.722-1.379l.362-.21c.397-.23.721.016.721.546 0 .528-.324 1.15-.721 1.378zM49.455 74.31l-6.473 3.738c-.397.229-.722-.018-.722-.546 0-.53.325-1.15.722-1.38l6.473-3.737c.398-.23.721.016.721.547 0 .528-.323 1.15-.721 1.378zM51.73 72.997l-.363.21c-.396.228-.721-.018-.721-.546 0-.531.325-1.15.721-1.379l.363-.21c.397-.229.722.016.722.546 0 .529-.325 1.15-.722 1.379zM54.091 71.634l-.363.208c-.396.23-.721-.016-.721-.545 0-.53.325-1.15.721-1.379l.363-.21c.397-.229.722.016.722.546s-.325 1.15-.722 1.38zM57.297 69.783l-.278.16c-.458.264-.834.048-.834-.481s.376-1.179.834-1.443l.278-.16c.458-.265.833-.049.833.48s-.375 1.179-.833 1.444zM65.51 65.041l-5.362 3.096c-.397.229-.721-.016-.721-.546s.324-1.15.721-1.38l5.362-3.095c.398-.23.722.015.722.545s-.324 1.15-.722 1.38zM84.185 54.26l-.278.16c-.458.263-.834.048-.834-.482s.376-1.179.834-1.443l.278-.16c.458-.266.833-.048.833.48 0 .529-.375 1.179-.833 1.444zM81.833 55.617l-13.557 7.826c-.398.23-.722-.015-.722-.545 0-.528.324-1.15.722-1.378l13.557-7.828c.397-.23.721.016.721.545 0 .53-.324 1.15-.721 1.38zM31.399 103.48l-4.53 2.615c-.396.23-.721-.016-.721-.546 0-.528.325-1.15.721-1.378l4.53-2.614c.396-.231.721.015.721.545 0 .528-.325 1.15-.721 1.378zM37.233 100.112l-3.418 1.973c-.398.23-.723-.015-.723-.545 0-.529.325-1.15.723-1.379l3.418-1.974c.396-.23.721.017.721.547 0 .528-.325 1.15-.721 1.378zM46.731 94.629l-7.029 4.058c-.397.23-.722-.016-.722-.547 0-.528.325-1.15.723-1.378l7.028-4.058c.398-.23.721.015.721.546 0 .529-.323 1.15-.72 1.379zM99.317 94.862h24.739c.384 0 .769-.024 1.148-.066.17-.02.327-.058.49-.084.2-.033.404-.062.598-.108.193-.045.369-.11.55-.166.15-.047.31-.088.453-.144.32-.122.618-.261.89-.417.271-.156.513-.329.726-.515.096-.083.163-.174.245-.26.1-.105.21-.206.292-.318.08-.112.126-.229.184-.344.048-.096.112-.186.145-.285.075-.219.116-.442.116-.663V86.73c0 .222-.04.444-.116.663-.033.099-.097.19-.145.285-.058.115-.105.232-.184.344-.081.112-.192.213-.292.318-.082.087-.149.177-.245.26-.213.186-.455.359-.726.515-.272.156-.57.295-.89.418-.144.055-.302.096-.453.144-.181.055-.357.12-.55.165-.194.046-.398.075-.598.108-.163.027-.32.065-.49.084-.379.043-.764.066-1.148.066h-24.74c-3.218 0-5.83-1.507-5.83-3.365v4.762c0 1.858 2.612 3.365 5.83 3.365z" stroke="#33475C" stroke-width="5" stroke-linecap="round" stroke-linejoin="round"/>
        <path d="M99.318 83.367h10.663L68.224 59.258c-2.278-1.314-2.278-3.446 0-4.762 2.277-1.314 5.97-1.314 8.249 0l41.757 24.109v-6.157c-.003-1.859 2.61-3.368 5.83-3.367 3.221-.001 5.834 1.507 5.833 3.367V86.73c0 .222-.04.444-.116.663-.033.099-.097.19-.145.284-.058.116-.105.231-.184.344-.081.112-.192.214-.292.32-.082.086-.149.176-.245.259-.213.186-.455.357-.726.514-.27.156-.57.297-.89.42-.144.056-.301.095-.452.142-.182.057-.358.12-.551.167-.194.046-.398.074-.598.107-.163.029-.32.064-.49.085-.379.042-.764.065-1.15.065H99.319c-3.22 0-5.832-1.506-5.832-3.365v-.002c-.001-1.858 2.612-3.368 5.832-3.366z" stroke="#33475C" stroke-width="5" stroke-linecap="round" stroke-linejoin="round"/>
        <path d="M68.224 64.02l33.51 19.347h8.247l-41.757-24.11c-1.139-.657-1.709-1.518-1.709-2.38v4.761c0 .863.57 1.724 1.709 2.381z" stroke="#33475C" stroke-width="5" stroke-linecap="round" stroke-linejoin="round"/>
        <path d="M124.061 69.081c-3.22-.001-5.833 1.508-5.831 3.367v6.157l-41.758-24.11c-2.278-1.313-5.97-1.313-8.248 0-1.138.659-1.708 1.52-1.708 2.381v4.762c0 .863.57 1.724 1.708 2.381l33.51 19.348h-2.417c-3.22-.002-5.833 1.508-5.832 3.366v4.763c0 1.86 2.613 3.366 5.832 3.366h24.74c.383 0 .768-.023 1.147-.066.17-.02.326-.057.49-.084.2-.033.404-.06.598-.108.193-.046.369-.109.55-.166.151-.048.31-.087.453-.143.32-.124.618-.263.89-.419.27-.156.513-.328.726-.514.096-.083.163-.174.245-.26.1-.106.21-.207.29-.319.082-.112.128-.228.186-.344.048-.095.111-.185.146-.284.075-.22.114-.44.114-.663V72.448c.001-1.86-2.61-3.367-5.831-3.367zM100.165 141.852l-39.833-22.997h8.446c1.658 0 3.227-.379 4.417-1.066 1.294-.747 2.006-1.776 2.006-2.896.001-1.122-.71-2.15-2.005-2.897-1.19-.687-2.762-1.066-4.421-1.066H44.037c-.407 0-.815.025-1.217.07-.126.015-.248.037-.369.06l-.312.055c-.16.025-.32.052-.477.088-.16.039-.31.087-.462.136l-.283.088c-.112.035-.224.067-.335.109-.708.273-1.31.623-1.788 1.037-.087.075-.158.152-.226.233l-.13.138c-.101.101-.199.205-.276.312-.081.113-.14.23-.195.347l-.077.146c-.052.094-.102.188-.139.29-.098.284-.148.572-.148.856v14.283c0 1.12.714 2.15 2.006 2.897 1.19.687 2.759 1.065 4.417 1.065h.012c1.656 0 3.225-.378 4.415-1.066 1.293-.748 2.005-1.776 2.004-2.896l.001-5.126 40.865 23.592c1.239.717 2.83 1.075 4.42 1.075 1.591 0 3.183-.358 4.422-1.074 1.293-.746 2.006-1.775 2.006-2.896 0-1.122-.713-2.15-2.006-2.897zM128.482 111.217c-1.19-.687-2.758-1.065-4.417-1.065h-.008c-2.262 0-4.308.695-5.472 1.862-.623.622-.952 1.35-.95 2.1v5.126L76.77 95.648c-2.48-1.433-6.366-1.43-8.844 0-1.294.747-2.006 1.775-2.006 2.895 0 1.122.712 2.15 2.006 2.897l39.834 22.998h-8.446c-1.66 0-3.228.38-4.419 1.066-1.294.748-2.006 1.776-2.005 2.898 0 2.22 2.824 3.96 6.428 3.96h24.737c.407 0 .815-.024 1.218-.07.127-.015.248-.037.369-.06l.303-.053c.165-.026.328-.053.486-.09.154-.037.298-.084.44-.13l.294-.09c.117-.036.235-.07.345-.112.35-.135.676-.29.973-.461.298-.172.572-.367.818-.579.086-.075.154-.15.223-.23l.14-.148c.096-.1.19-.198.268-.305.081-.114.138-.229.194-.344l.078-.15c.053-.094.103-.19.136-.287.098-.283.148-.571.148-.856v-14.282c.001-1.122-.712-2.15-2.006-2.898zM48.155 89.892c-1.056.61-2.514.987-4.124.986-3.221.001-5.832-1.507-5.83-3.367v4.762c-.002 1.86 2.609 3.368 5.83 3.367 1.61.001 3.068-.376 4.124-.986 1.055-.61 1.709-1.452 1.709-2.38V87.51c0 .929-.654 1.772-1.709 2.381z" stroke="#33475C" stroke-width="5" stroke-linecap="round" stroke-linejoin="round"/>
        <path d="M99.868 110.225c1.139-.658 1.708-1.518 1.708-2.381v-4.762c0 .863-.569 1.723-1.708 2.38-2.278 1.316-5.97 1.316-8.248 0L49.863 81.355v4.762l41.757 24.109c2.277 1.315 5.97 1.315 8.248 0zM68.775 76.592H58.11l8.25 4.762h2.415c3.218.001 5.83-1.507 5.83-3.364v-4.762c0 1.857-2.612 3.366-5.83 3.364z" stroke="#33475C" stroke-width="5" stroke-linecap="round" stroke-linejoin="round"/>
        <path d="M38.199 87.511V73.23c0-.223.04-.444.115-.663.035-.099.098-.19.147-.285.058-.115.105-.232.184-.344.08-.112.19-.214.292-.32.081-.086.148-.176.244-.258.427-.37.977-.688 1.616-.935.144-.053.298-.093.448-.14.184-.059.36-.122.555-.168.194-.045.394-.073.593-.106.165-.029.325-.065.495-.085.38-.044.763-.066 1.148-.066h24.74c3.22 0 5.831 1.507 5.83 3.366v.003c0 1.857-2.613 3.365-5.83 3.364H58.11L99.868 100.7c1.14.659 1.707 1.52 1.707 2.381 0 .864-.568 1.724-1.707 2.381-2.277 1.316-5.97 1.316-8.248 0L49.863 81.354l-.001 6.157c.001.93-.652 1.772-1.707 2.381-1.055.61-2.514.987-4.125.986-3.22.001-5.831-1.507-5.831-3.367z" stroke="#33475C" stroke-width="5" stroke-linecap="round" stroke-linejoin="round"/>
        <path d="M99.868 100.7L66.359 81.355h2.416c3.218.001 5.83-1.507 5.83-3.364V73.226c.002-1.86-2.61-3.368-5.83-3.367H44.037c-.386 0-.77.021-1.148.066-.171.02-.33.057-.495.085-.199.034-.4.06-.593.106-.195.047-.373.11-.556.17-.15.046-.305.083-.447.139-.64.246-1.19.564-1.617.934-.097.082-.162.173-.244.258-.101.106-.21.209-.292.32-.08.113-.126.23-.184.343-.05.096-.112.187-.147.286-.076.22-.115.44-.114.663v19.044c-.001 1.859 2.61 3.368 5.832 3.367 1.608.001 3.068-.376 4.124-.986 1.053-.61 1.707-1.452 1.707-2.38V86.115l41.757 24.109c2.277 1.315 5.97 1.315 8.248 0 1.139-.658 1.708-1.518 1.708-2.381v-4.762c0-.862-.569-1.723-1.708-2.381z" stroke="#33475C" stroke-width="5" stroke-linecap="round" stroke-linejoin="round"/>
        <path d="M4.866 133.527c-.927-.905-1.89-2.456-1.89-5.019V59.391c0-3.273 2.32-7.291 5.155-8.928L25.732 40.3l22.756-13.138 22.756-13.138L88.845 3.862c1.487-.859 2.828-.892 3.77-.265l.011-.002 3.561 2.369L94 7.219v72.496L71.244 92.853 48.49 105.991l-22.757 13.137v.002L6.548 130.206v4.441l-.99-.66-.692-.46z" fill="#CBD6E3"/>
        <path d="M4.866 133.527c-.927-.905-1.89-2.456-1.89-5.019V59.391c0-3.273 2.32-7.291 5.155-8.928L25.732 40.3l22.756-13.138 22.756-13.138L88.845 3.862c1.487-.859 2.828-.892 3.77-.265l.011-.002 3.561 2.369L94 7.219v72.496L71.244 92.853 48.49 105.991l-22.757 13.137v.002L6.548 130.206v4.441l-.99-.66-.692-.46z" stroke="#33475C" stroke-linecap="round" stroke-linejoin="round"/>
        <path d="M8.61 140.6c-1.134-.655-2.062-2.26-2.062-3.571v-2.381l6.388-1.47-.239 2.683 16.607-9.59 22.756-13.136 45.512-26.278 45.512 26.278 15.443 8.915v-.746h4.284v4.945h-.003c.01 1.087-.695 2.175-2.123 3l-17.601 10.162-22.756 13.137-22.756 13.138-17.602 10.162c-2.834 1.637-7.473 1.637-10.309.001l-17.6-10.163-22.757-13.138L8.61 140.6z" fill="#CBD6E3"/>
        <path d="M8.61 140.6c-1.134-.655-2.062-2.26-2.062-3.571v-2.381l6.388-1.47-.239 2.683 16.607-9.59 22.756-13.136 45.512-26.278 45.512 26.278 15.443 8.915v-.746h4.284v4.945h-.003c.01 1.087-.695 2.175-2.123 3l-17.601 10.162-22.756 13.137-22.756 13.138-17.602 10.162c-2.834 1.637-7.473 1.637-10.309.001l-17.6-10.163-22.757-13.138L8.61 140.6z" stroke="#33475C" stroke-linecap="round" stroke-linejoin="round"/>
        <path d="M29.304 147.786l22.756 13.138 17.601 10.163c2.836 1.636 7.475 1.636 10.31 0l17.6-10.163 22.757-13.138 22.756-13.137 17.601-10.162c2.835-1.637 2.835-4.315 0-5.952l-17.601-10.162-45.512-26.277-45.512 26.277-22.756 13.137-22.756 13.138 22.756 13.138" fill="#E4EAEF"/>
        <path d="M29.304 147.786l22.756 13.138 17.601 10.163c2.836 1.636 7.475 1.636 10.31 0l17.6-10.163 22.757-13.138 22.756-13.137 17.601-10.162c2.835-1.637 2.835-4.315 0-5.952l-17.601-10.162-45.512-26.277-45.512 26.277-22.756 13.137-22.756 13.138 22.756 13.138" stroke="#33475C" stroke-linecap="round" stroke-linejoin="round"/>
        <path d="M74.815 95.234l-22.754 13.138-22.756 13.137v.001L6.548 134.647V61.772c0-3.273 2.32-7.291 5.154-8.928L29.305 42.68l22.754-13.138 22.756-13.138L92.417 6.243c2.835-1.637 5.154-.298 5.154 2.975v72.878L74.815 95.234" fill="#32475C"/>
        <path d="M74.815 95.234l-22.754 13.138-22.756 13.137v.001L6.548 134.647V61.772c0-3.273 2.32-7.291 5.154-8.928L29.305 42.68l22.754-13.138 22.756-13.138L92.417 6.243c2.835-1.637 5.154-.298 5.154 2.975v72.878L74.815 95.234" stroke="#33475C" stroke-linecap="round" stroke-linejoin="round"/>
        <path d="M89.229 15.668c1.701-.983 3.093-.179 3.093 1.785v57.605c0 1.964-1.392 4.375-3.093 5.357l-74.338 42.92c-1.701.983-3.093.178-3.093-1.786V63.944c0-1.964 1.392-4.375 3.093-5.357l74.338-42.92z" fill="#415A77"/>
        <path d="M89.229 15.668c1.701-.983 3.093-.179 3.093 1.785v57.605c0 1.964-1.392 4.375-3.093 5.357l-74.338 42.92c-1.701.983-3.093.178-3.093-1.786V63.944c0-1.964 1.392-4.375 3.093-5.357l74.338-42.92z" stroke="#33475C" stroke-linecap="round" stroke-linejoin="round"/>
        <path d="M78.729 144.835c-1.702-.98-1.702-2.589 0-3.571l29.73-17.164c1.7-.982 4.485-.982 6.186 0l16.57 9.566c1.702.983 1.702 2.59 0 3.572l-29.73 17.164c-1.7.982-4.485.982-6.186 0l-16.57-9.567z" fill="#EAF0F6"/>
        <path d="M78.729 144.835c-1.702-.98-1.702-2.589 0-3.571l29.73-17.164c1.7-.982 4.485-.982 6.186 0l16.57 9.566c1.702.983 1.702 2.59 0 3.572l-29.73 17.164c-1.7.982-4.485.982-6.186 0l-16.57-9.567z" stroke="#33475C"/>
        <path d="M30.698 134.506c-1.701-.982-1.701-2.59 0-3.571L93.332 94.77c1.703-.982 4.486-.982 6.187 0l23.104 13.34c1.701.982 1.701 2.589 0 3.571l-62.635 36.162c-1.7.982-4.484.982-6.186 0l-23.104-13.338z" fill="#CBD6E3"/>
        <path d="M30.698 134.506c-1.701-.982-1.701-2.59 0-3.571L93.332 94.77c1.703-.982 4.486-.982 6.187 0l23.104 13.34c1.701.982 1.701 2.589 0 3.571l-62.635 36.162c-1.7.982-4.484.982-6.186 0l-23.104-13.338z" stroke="#33475C" stroke-linecap="round" stroke-linejoin="round"/>
        <path fill="#415A77" d="M18.719 127.621l10.586-6.112 22.755-13.137 35.48-20.484 4.005 2.31-68.821 39.735z"/>
        <path stroke="#33475C" stroke-linecap="round" stroke-linejoin="round" d="M18.719 127.621l10.586-6.112 22.755-13.137 35.48-20.484 4.005 2.31-68.821 39.735z"/>
        <path d="M89.229 15.668c1.701-.983 3.093-.179 3.093 1.785v57.605c0 1.964-1.392 4.375-3.093 5.357l-74.338 42.918c-1.701.983-3.093.18-3.093-1.786V63.944c0-1.964 1.392-4.375 3.093-5.357l74.338-42.92z" fill="#415A77"/>
        <path d="M89.229 15.668c1.701-.983 3.093-.179 3.093 1.785v57.605c0 1.964-1.392 4.375-3.093 5.357l-74.338 42.918c-1.701.983-3.093.18-3.093-1.786V63.944c0-1.964 1.392-4.375 3.093-5.357l74.338-42.92z" stroke="#33475C" stroke-linecap="round" stroke-linejoin="round"/>
        <path d="M25.983 64.43l-7.03 4.058c-.397.23-.723-.016-.723-.545s.326-1.15.723-1.379l7.03-4.058c.396-.23.72.015.72.545s-.324 1.15-.72 1.38" fill="#FFF"/>
        <path d="M19.62 82.162l-.556.322c-.458.264-.833.047-.833-.482s.375-1.179.833-1.443l.556-.32c.458-.266.833-.05.833.48 0 .529-.375 1.179-.833 1.443" fill="#75715C"/>
        <path d="M28.482 91.105l-1.612.93c-.396.23-.722-.015-.722-.545s.326-1.15.722-1.378l1.612-.931c.397-.23.722.015.722.545 0 .529-.325 1.15-.722 1.379" fill="#6BD1E5"/>
        <path d="M34.316 87.737l-3.418 1.974c-.398.23-.723-.016-.723-.547 0-.528.325-1.15.723-1.378l3.418-1.973c.396-.23.721.015.721.545 0 .529-.325 1.15-.721 1.379" fill="#FFF"/>
        <path d="M36.815 86.294l-.361.21c-.398.228-.722-.018-.722-.547 0-.53.324-1.15.722-1.378l.361-.21c.398-.23.722.016.722.546 0 .529-.324 1.15-.722 1.379" fill="#F63174"/>
        <path d="M41.4 83.647l-2.447 1.413c-.396.229-.72-.017-.72-.545 0-.531.324-1.15.72-1.38l2.447-1.412c.396-.23.721.016.721.545 0 .53-.325 1.15-.721 1.379M43.132 82.326c0 .178-.124.393-.278.481-.153.09-.278.018-.278-.16 0-.177.125-.392.278-.48.154-.09.278-.017.278.16M52.511 77.232l-8.28 4.78c-.396.23-.722-.016-.722-.544v-.002c0-.53.326-1.15.723-1.38l8.28-4.778c.396-.23.72.015.72.545 0 .529-.324 1.15-.72 1.379" fill="#FFF"/>
        <path d="M55.428 75.548l-.363.21c-.396.228-.721-.017-.721-.547s.325-1.15.721-1.378l.363-.21c.397-.23.72.016.72.547 0 .528-.323 1.15-.72 1.378" fill="#F63174"/>
        <path d="M61.4 72.1l-3.278 1.893c-.398.229-.722-.017-.722-.545 0-.53.324-1.15.722-1.379l3.278-1.894c.397-.23.722.016.722.547 0 .528-.325 1.15-.722 1.378M63.133 70.78c0 .176-.124.391-.278.48-.153.09-.278.017-.278-.159 0-.179.125-.394.278-.482.154-.088.278-.017.278.16M72.512 65.684l-8.28 4.78c-.396.23-.72-.016-.72-.544 0-.531.324-1.15.72-1.38l8.28-4.78c.397-.23.722.016.722.545 0 .53-.325 1.15-.722 1.379M23.82 70.364l-.277.161c-.46.264-.835.049-.835-.482 0-.529.375-1.177.835-1.442l.277-.16c.459-.266.832-.048.832.48 0 .53-.373 1.18-.832 1.443" fill="#FFF"/>
        <path d="M20.315 72.388l-1.251.722c-.458.265-.833.047-.833-.481 0-.529.375-1.179.833-1.444l1.251-.72c.458-.266.832-.05.832.48s-.374 1.18-.832 1.443" fill="#75715C"/>
        <path d="M29.348 67.173l-2.585 1.493c-.397.229-.72-.017-.72-.546s.323-1.15.72-1.379l2.585-1.492c.397-.23.72.016.72.546 0 .528-.323 1.15-.72 1.378" fill="#A2E200"/>
        <path d="M31.76 65.78l-.361.21c-.398.228-.722-.018-.722-.547 0-.53.324-1.15.722-1.378l.362-.21c.397-.23.721.016.721.547 0 .528-.324 1.15-.721 1.378" fill="#FFF"/>
        <path d="M40.32 60.838l-6.334 3.657c-.396.23-.723-.015-.723-.545s.327-1.15.723-1.38l6.335-3.657c.396-.23.721.017.721.547 0 .528-.325 1.15-.721 1.378" fill="#6BD1E5"/>
        <path d="M42.456 59.605l-.363.21c-.396.228-.721-.017-.721-.546 0-.53.325-1.15.721-1.379l.363-.209c.397-.23.722.015.722.545 0 .529-.325 1.15-.722 1.379" fill="#FFF"/>
        <path d="M44.678 58.322l-.362.21c-.398.229-.721-.017-.721-.546 0-.53.323-1.15.721-1.379l.362-.21c.398-.23.721.016.721.547 0 .528-.323 1.15-.721 1.378M53.376 53.3l-6.472 3.738c-.398.229-.723-.016-.723-.545 0-.531.325-1.15.723-1.381l6.472-3.736c.398-.23.722.016.722.546 0 .528-.324 1.15-.722 1.378" fill="#FC9900"/>
        <path d="M55.652 51.988l-.364.208c-.396.23-.721-.017-.721-.545 0-.53.325-1.15.721-1.379l.364-.21c.396-.23.72.016.72.546s-.324 1.15-.72 1.38M58.013 50.624l-.363.21c-.397.228-.722-.017-.722-.547s.325-1.15.722-1.379l.363-.21c.396-.229.72.018.72.547s-.324 1.15-.72 1.379M65.429 74.46l-3.28 1.894c-.396.229-.721-.016-.721-.546s.325-1.15.721-1.379l3.28-1.893c.396-.23.72.016.72.546 0 .528-.324 1.15-.72 1.378M67.16 73.14c0 .177-.124.392-.278.48-.153.09-.278.018-.278-.159s.125-.393.278-.482c.154-.088.278-.016.278.16" fill="#FFF"/>
        <path d="M28.482 95.791l-1.612.931c-.396.23-.722-.015-.722-.545 0-.529.326-1.15.722-1.379l1.612-.93c.397-.23.722.015.722.544 0 .53-.325 1.15-.722 1.38" fill="#6BD1E5"/>
        <path d="M34.316 92.423l-3.418 1.974c-.398.23-.723-.016-.723-.547 0-.528.325-1.15.723-1.378l3.418-1.973c.396-.23.721.016.721.546 0 .528-.325 1.15-.721 1.378" fill="#FFF"/>
        <path d="M36.815 90.98l-.361.21c-.398.228-.722-.017-.722-.547s.324-1.15.722-1.378l.361-.21c.398-.23.722.016.722.547 0 .528-.324 1.15-.722 1.378" fill="#F63174"/>
        <path d="M41.4 88.333l-2.447 1.413c-.396.229-.72-.016-.72-.545 0-.53.324-1.15.72-1.38L41.4 86.41c.396-.23.721.016.721.546s-.325 1.15-.721 1.378M43.132 87.014c0 .176-.124.391-.278.48-.153.09-.278.017-.278-.16s.125-.393.278-.481c.154-.09.278-.017.278.16M56.262 79.753L44.232 86.7c-.396.228-.722-.017-.722-.546 0-.53.326-1.15.722-1.38l12.03-6.945c.396-.23.72.017.72.547 0 .528-.324 1.15-.72 1.378" fill="#FFF"/>
        <path d="M59.455 77.908l-.361.21c-.398.228-.722-.017-.722-.545 0-.53.324-1.15.722-1.379l.361-.21c.398-.23.722.016.722.546s-.324 1.15-.722 1.378" fill="#F63174"/>
        <path d="M49.756 88.196l-1.612.93c-.396.23-.722-.016-.722-.546 0-.528.326-1.15.722-1.378l1.612-.931c.397-.23.721.015.721.545s-.324 1.15-.72 1.38" fill="#6BD1E5"/>
        <path d="M55.59 84.828l-3.418 1.973c-.398.23-.723-.016-.723-.546s.325-1.15.723-1.38l3.418-1.972c.396-.23.72.015.72.545s-.324 1.15-.72 1.38M30.01 99.596l-3.14 1.812c-.397.23-.722-.015-.722-.545 0-.529.325-1.149.721-1.379l3.14-1.813c.398-.23.722.016.722.547 0 .528-.324 1.15-.721 1.378" fill="#FFF"/>
        <path d="M34.316 97.11l-2.446 1.412c-.397.23-.722-.016-.722-.545 0-.53.325-1.15.722-1.38l2.446-1.411c.396-.23.721.015.721.545s-.325 1.15-.721 1.378" fill="#6BD1E5"/>
        <path d="M45.16 90.849l-8.975 5.182c-.396.229-.722-.016-.722-.546s.326-1.15.722-1.38l8.974-5.18c.398-.23.722.016.722.545s-.324 1.15-.722 1.379M23.344 84.699l-4.39 2.536c-.397.228-.724-.017-.724-.547 0-.528.327-1.15.723-1.378l4.39-2.535c.397-.23.72.016.72.545s-.323 1.15-.72 1.379M29.594 81.09l-3.696 2.135c-.397.228-.722-.017-.722-.547 0-.528.325-1.15.722-1.378l3.696-2.133c.396-.23.721.015.721.545 0 .528-.325 1.15-.721 1.378" fill="#FFF"/>
        <path d="M31.955 79.728l-.363.21c-.397.228-.722-.017-.722-.547s.325-1.15.722-1.379l.363-.21c.396-.229.721.016.721.547 0 .529-.325 1.15-.721 1.379" fill="#F63174"/>
        <path d="M34.316 78.364l-.363.21c-.397.228-.72-.017-.72-.546 0-.53.323-1.15.72-1.378l.363-.21c.396-.23.721.016.721.546 0 .528-.325 1.15-.721 1.378M24.936 83.459c0 .177-.123.392-.277.48-.154.09-.279.018-.279-.159s.125-.393.279-.482c.154-.088.277-.016.277.16" fill="#FFF"/>
        <path d="M38.767 75.794l-1.611.93c-.397.23-.722-.015-.722-.545s.325-1.15.722-1.38l1.611-.93c.398-.229.722.016.722.546 0 .529-.324 1.15-.721 1.379" fill="#6BD1E5"/>
        <path d="M45.481 71.918l-4.39 2.534c-.397.23-.722-.017-.722-.545 0-.529.325-1.15.722-1.379l4.39-2.534c.397-.23.722.015.722.545 0 .529-.325 1.15-.722 1.379" fill="#FFF"/>
        <path d="M25.176 74.268l-6.112 3.529c-.458.265-.833.048-.833-.481 0-.53.375-1.18.833-1.443l6.112-3.528c.458-.266.833-.05.833.48 0 .529-.375 1.178-.833 1.443M32.26 70.178l-4.305 2.486c-.46.266-.834.049-.834-.48 0-.53.374-1.18.834-1.444l4.304-2.485c.459-.266.834-.05.834.48s-.375 1.18-.834 1.443" fill="#75715C"/>
        <path d="M38.049 66.836l-3.14 1.813c-.398.23-.722-.015-.722-.546 0-.529.324-1.15.721-1.379l3.14-1.812c.397-.23.722.016.722.545 0 .53-.325 1.15-.721 1.38" fill="#FFF"/>
        <path d="M42.354 64.35l-2.445 1.412c-.398.23-.722-.016-.722-.545 0-.53.324-1.15.722-1.38l2.445-1.412c.398-.23.721.017.721.547 0 .528-.323 1.15-.721 1.378" fill="#6BD1E5"/>
        <path d="M53.198 58.09l-8.973 5.181c-.398.229-.723-.017-.723-.545 0-.53.325-1.15.723-1.38l8.973-5.181c.397-.23.72.015.72.546 0 .529-.323 1.15-.72 1.379" fill="#FFF"/>
        <path d="M62.02 52.996l-5.362 3.097c-.397.229-.721-.016-.721-.546s.324-1.15.721-1.38l5.362-3.095c.398-.23.722.015.722.545s-.324 1.15-.722 1.379" fill="#A2E200"/>
        <path d="M69.706 48.56l-5.085 2.935c-.396.228-.721-.017-.721-.545 0-.531.325-1.15.721-1.38l5.085-2.936c.397-.23.721.016.721.547 0 .528-.324 1.15-.721 1.378" fill="#6BD1E5"/>
        <path d="M71.678 47.421c-.459.264-.834.048-.834-.48 0-.532.375-1.18.834-1.445.458-.265.833-.048.833.481s-.375 1.179-.833 1.444" fill="#FFF"/>
        <path d="M84.29 40.139L73.927 46.12c-.396.23-.722-.016-.722-.545s.326-1.15.722-1.379l10.363-5.982c.397-.23.72.015.72.545 0 .529-.323 1.15-.72 1.379" fill="#FC9900"/>
        <path d="M25.427 88.183l-2.586 1.492c-.396.228-.72-.017-.72-.545 0-.529.324-1.15.72-1.379l2.586-1.493c.396-.23.72.016.72.547 0 .528-.324 1.15-.72 1.378" fill="#A2E200"/>
        <path d="M27.84 86.79l-.363.209c-.397.228-.721-.017-.721-.545 0-.53.324-1.15.721-1.379l.362-.21c.398-.23.722.016.722.546 0 .528-.324 1.15-.722 1.378" fill="#FFF"/>
        <path d="M36.4 81.848l-6.335 3.656c-.397.231-.723-.015-.723-.545 0-.529.326-1.15.723-1.379l6.334-3.657c.397-.23.722.016.722.546s-.325 1.15-.722 1.38" fill="#6BD1E5"/>
        <path d="M38.535 80.615l-.363.21c-.397.228-.722-.017-.722-.546 0-.53.325-1.15.722-1.38l.363-.208c.396-.23.721.016.721.545s-.325 1.15-.721 1.379" fill="#FFF"/>
        <path d="M40.757 79.331l-.362.21c-.398.229-.722-.017-.722-.545 0-.53.324-1.15.722-1.379l.362-.21c.397-.23.721.016.721.546 0 .528-.324 1.15-.721 1.378M49.455 74.31l-6.473 3.738c-.397.229-.722-.018-.722-.546 0-.53.325-1.15.722-1.38l6.473-3.737c.398-.23.721.016.721.547 0 .528-.323 1.15-.721 1.378" fill="#FC9900"/>
        <path d="M51.73 72.997l-.363.21c-.396.228-.721-.018-.721-.546 0-.531.325-1.15.721-1.379l.363-.21c.397-.229.722.016.722.546 0 .529-.325 1.15-.722 1.379M54.091 71.634l-.363.208c-.396.23-.721-.016-.721-.545 0-.53.325-1.15.721-1.379l.363-.21c.397-.229.722.016.722.546s-.325 1.15-.722 1.38" fill="#FFF"/>
        <path d="M57.297 69.783l-.278.16c-.458.264-.834.048-.834-.481s.376-1.179.834-1.443l.278-.16c.458-.265.833-.049.833.48s-.375 1.179-.833 1.444" fill="#F63174"/>
        <path d="M65.51 65.041l-5.362 3.096c-.397.229-.721-.016-.721-.546s.324-1.15.721-1.38l5.362-3.095c.398-.23.722.015.722.545s-.324 1.15-.722 1.38" fill="#FFF"/>
        <path d="M84.185 54.26l-.278.16c-.458.263-.834.048-.834-.482s.376-1.179.834-1.443l.278-.16c.458-.266.833-.048.833.48 0 .529-.375 1.179-.833 1.444" fill="#F63174"/>
        <path d="M81.833 55.617l-13.557 7.826c-.398.23-.722-.015-.722-.545 0-.528.324-1.15.722-1.378l13.557-7.828c.397-.23.721.016.721.545 0 .53-.324 1.15-.721 1.38" fill="#FFF"/>
        <path d="M31.399 103.48l-4.53 2.615c-.396.23-.721-.016-.721-.546 0-.528.325-1.15.721-1.378l4.53-2.614c.396-.231.721.015.721.545 0 .528-.325 1.15-.721 1.378" fill="#F63174"/>
        <path d="M37.233 100.112l-3.418 1.973c-.398.23-.723-.015-.723-.545 0-.529.325-1.15.723-1.379l3.418-1.974c.396-.23.721.017.721.547 0 .528-.325 1.15-.721 1.378M46.731 94.629l-7.029 4.058c-.397.23-.722-.016-.722-.547 0-.528.325-1.15.723-1.378l7.028-4.058c.398-.23.721.015.721.546 0 .529-.323 1.15-.72 1.379" fill="#FFF"/>
        <path d="M99.317 94.862h24.739c.384 0 .769-.024 1.148-.066.17-.02.327-.058.49-.084.2-.033.404-.062.598-.108.193-.045.369-.11.55-.166.15-.047.31-.088.453-.144.32-.122.618-.261.89-.417.271-.156.513-.329.726-.515.096-.083.163-.174.245-.26.1-.105.21-.206.292-.318.08-.112.126-.229.184-.344.048-.096.112-.186.145-.285.075-.219.116-.442.116-.663V86.73c0 .222-.04.444-.116.663-.033.099-.097.19-.145.285-.058.115-.105.232-.184.344-.081.112-.192.213-.292.318-.082.087-.149.177-.245.26-.213.186-.455.359-.726.515-.272.156-.57.295-.89.418-.144.055-.302.096-.453.144-.181.055-.357.12-.55.165-.194.046-.398.075-.598.108-.163.027-.32.065-.49.084-.379.043-.764.066-1.148.066h-24.74c-3.218 0-5.83-1.507-5.83-3.365v4.762c0 1.858 2.612 3.365 5.83 3.365" fill="#7BDED2"/>
        <path d="M99.318 83.367h10.663L68.224 59.258c-2.278-1.314-2.278-3.446 0-4.762 2.277-1.314 5.97-1.314 8.249 0l41.757 24.109v-6.157c-.003-1.859 2.61-3.368 5.83-3.367 3.221-.001 5.834 1.507 5.833 3.367V86.73c0 .222-.04.444-.116.663-.033.099-.097.19-.145.284-.058.116-.105.231-.184.344-.081.112-.192.214-.292.32-.082.086-.149.176-.245.259-.213.186-.455.357-.726.514-.27.156-.57.297-.89.42-.144.056-.301.095-.452.142-.182.057-.358.12-.551.167-.194.046-.398.074-.598.107-.163.029-.32.064-.49.085-.379.042-.764.065-1.15.065H99.319c-3.22 0-5.832-1.506-5.832-3.365v-.002c-.001-1.858 2.612-3.368 5.832-3.366" fill="#E4F8F6"/>
        <path d="M68.224 64.02l33.51 19.347h8.247l-41.757-24.11c-1.139-.657-1.709-1.518-1.709-2.38v4.761c0 .863.57 1.724 1.709 2.381" fill="#7BDED2"/>
        <path d="M124.061 69.081c-3.22-.001-5.833 1.508-5.831 3.367v6.157l-41.758-24.11c-2.278-1.313-5.97-1.313-8.248 0-1.138.659-1.708 1.52-1.708 2.381v4.762c0 .863.57 1.724 1.708 2.381l33.51 19.348h-2.417c-3.22-.002-5.833 1.508-5.832 3.366v4.763c0 1.86 2.613 3.366 5.832 3.366h24.74c.383 0 .768-.023 1.147-.066.17-.02.326-.057.49-.084.2-.033.404-.06.598-.108.193-.046.369-.109.55-.166.151-.048.31-.087.453-.143.32-.124.618-.263.89-.419.27-.156.513-.328.726-.514.096-.083.163-.174.245-.26.1-.106.21-.207.29-.319.082-.112.128-.228.186-.344.048-.095.111-.185.146-.284.075-.22.114-.44.114-.663V72.448c.001-1.86-2.61-3.367-5.831-3.367z" stroke="#33475C" stroke-linecap="round" stroke-linejoin="round"/>
        <g fill="#33475C" opacity=".1">
            <path d="M100.165 141.852l-39.833-22.997h8.446c1.658 0 3.227-.379 4.417-1.066 1.294-.747 2.006-1.776 2.006-2.896.001-1.122-.71-2.15-2.005-2.897-1.19-.687-2.762-1.066-4.421-1.066H44.037c-.407 0-.814.025-1.217.07-.126.015-.247.037-.369.06l-.312.055c-.16.025-.32.052-.477.088-.16.039-.31.087-.462.136l-.283.088c-.112.035-.224.067-.335.109-.708.273-1.31.623-1.788 1.037-.087.075-.158.152-.226.233l-.13.138c-.101.101-.199.205-.276.312-.081.113-.14.23-.195.347l-.077.146c-.052.094-.102.188-.139.29-.098.284-.148.572-.148.856v14.283c0 1.12.714 2.15 2.006 2.897 1.19.687 2.759 1.065 4.417 1.065h.012c1.656 0 3.225-.378 4.415-1.066 1.293-.748 2.005-1.776 2.004-2.896l.001-5.126 40.865 23.592c1.239.717 2.83 1.075 4.42 1.075 1.591 0 3.183-.358 4.422-1.074 1.293-.746 2.006-1.775 2.006-2.896 0-1.122-.713-2.15-2.006-2.897M128.482 111.217c-1.19-.687-2.758-1.065-4.417-1.065h-.008c-2.262 0-4.308.695-5.472 1.862-.623.622-.952 1.35-.95 2.1v5.126L76.77 95.648c-2.48-1.433-6.366-1.43-8.844 0-1.294.747-2.006 1.775-2.006 2.895 0 1.122.712 2.15 2.006 2.897l39.834 22.998h-8.446c-1.66 0-3.228.38-4.419 1.066-1.294.748-2.006 1.776-2.005 2.898 0 2.22 2.824 3.96 6.428 3.96h24.737c.407 0 .815-.024 1.218-.07.127-.015.248-.037.369-.06l.303-.053c.165-.026.328-.053.486-.09.154-.037.298-.084.44-.13l.294-.09c.117-.036.235-.07.345-.112.35-.135.676-.29.973-.461.298-.172.572-.367.818-.579.086-.075.154-.15.223-.23l.14-.148c.096-.1.19-.198.268-.305.081-.114.138-.229.194-.344l.078-.15c.053-.094.103-.19.136-.287.098-.283.148-.571.148-.856v-14.282c.001-1.122-.712-2.15-2.006-2.898"/>
        </g>
        <path d="M48.155 89.892c-1.056.61-2.514.987-4.124.986-3.221.001-5.832-1.507-5.83-3.367v4.762c-.002 1.86 2.609 3.368 5.83 3.367 1.61.001 3.068-.376 4.124-.986 1.055-.61 1.709-1.452 1.709-2.38V87.51c0 .929-.654 1.772-1.709 2.381M99.868 110.225c1.139-.658 1.708-1.518 1.708-2.381v-4.762c0 .863-.569 1.723-1.708 2.38-2.278 1.316-5.97 1.316-8.248 0L49.863 81.355v4.762l41.757 24.109c2.277 1.315 5.97 1.315 8.248 0M68.775 76.592H58.11l8.25 4.762h2.415c3.218.001 5.83-1.507 5.83-3.364v-4.762c0 1.857-2.612 3.366-5.83 3.364" fill="#F6C364"/>
        <path d="M38.199 87.511V73.23c0-.223.04-.444.115-.663.035-.099.098-.19.147-.285.058-.115.105-.232.184-.344.08-.112.19-.214.292-.32.081-.086.148-.176.244-.258.427-.37.977-.688 1.616-.935.144-.053.298-.093.448-.14.184-.059.36-.122.555-.168.194-.045.394-.073.593-.106.165-.029.325-.065.495-.085.38-.044.763-.066 1.148-.066h24.74c3.22 0 5.831 1.507 5.83 3.366v.003c0 1.857-2.613 3.365-5.83 3.364H58.11L99.868 100.7c1.14.659 1.707 1.52 1.707 2.381 0 .864-.568 1.724-1.707 2.381-2.277 1.316-5.97 1.316-8.248 0L49.863 81.354l-.001 6.157c.001.93-.652 1.772-1.707 2.381-1.055.61-2.514.987-4.125.986-3.22.001-5.831-1.507-5.831-3.367" fill="#FBE1B2"/>
        <path d="M99.868 100.7L66.359 81.355h2.416c3.218.001 5.83-1.507 5.83-3.364V73.226c.002-1.86-2.61-3.368-5.83-3.367H44.037c-.386 0-.77.021-1.148.066-.171.02-.33.057-.495.085-.199.034-.4.06-.593.106-.195.047-.373.11-.556.17-.15.046-.305.083-.447.139-.64.246-1.19.564-1.617.934-.097.082-.162.173-.244.258-.101.106-.21.209-.292.32-.08.113-.126.23-.184.343-.05.096-.112.187-.147.286-.076.22-.115.44-.114.663v19.044c-.001 1.859 2.61 3.368 5.832 3.367 1.608.001 3.068-.376 4.124-.986 1.053-.61 1.707-1.452 1.707-2.38V86.115l41.757 24.109c2.277 1.315 5.97 1.315 8.248 0 1.139-.658 1.708-1.518 1.708-2.381v-4.762c0-.862-.569-1.723-1.708-2.381z" stroke="#33475C" stroke-linecap="round" stroke-linejoin="round"/>
    </g>
</svg>
