
<svg width="141" height="194" viewBox="0 0 141 194" xmlns="http://www.w3.org/2000/svg">
    <g fill="none" fill-rule="evenodd">
        <path d="M138.475 150.864c2.406 1.39 2.406 3.662 0 5.051l-63.96 36.928c-2.406 1.39-6.344 1.39-8.75 0l-63.96-36.928c-2.406-1.389-2.406-3.662 0-5.05l63.96-36.929c2.406-1.389 6.344-1.389 8.75 0l63.96 36.928z" fill="#FF8F52" opacity=".2"/>
        <path d="M77.587 158.75c0 4.112-3.335 7.446-7.447 7.446s-7.447-3.334-7.447-7.446 3.335-7.446 7.448-7.446c4.111 0 7.445 3.334 7.445 7.446z" stroke="#33475C" stroke-width="5" stroke-linecap="round" stroke-linejoin="round"/>
        <path d="M90.14 108.283h-40v40.92c0 1.432.454 2.863 1.363 4.215.973 1.445 2.465 2.798 4.478 3.96 7.787 4.496 20.53 4.496 28.318 0 2.013-1.162 3.505-2.515 4.478-3.96.908-1.352 1.354-2.783 1.354-4.215h.01v-40.92z" stroke="#33475C" stroke-width="5" stroke-linecap="round" stroke-linejoin="round"/>
        <path d="M78.67 140.402c0 4.694-3.806 8.5-8.5 8.5-4.695 0-8.5-3.806-8.5-8.5 0-4.695 3.805-8.5 8.5-8.5 4.694 0 8.5 3.805 8.5 8.5z" stroke="#33475C" stroke-width="5" stroke-linecap="round" stroke-linejoin="round"/>
        <path d="M75.67 140.402c0 3.037-2.463 5.5-5.5 5.5-3.038 0-5.5-2.463-5.5-5.5 0-3.038 2.462-5.5 5.5-5.5 3.037 0 5.5 2.462 5.5 5.5z" stroke="#33475C" stroke-width="5" stroke-linecap="round" stroke-linejoin="round"/>
        <path d="M51.503 153.418c.973 1.445 2.465 2.798 4.478 3.96 7.787 4.496 20.53 4.496 28.318 0 2.013-1.162 3.505-2.515 4.477-3.96.91-1.352 1.355-2.783 1.355-4.215h.01v-6h-.01c0 1.432-.446 2.863-1.355 4.215-.972 1.445-2.464 2.798-4.477 3.96-7.788 4.496-20.53 4.496-28.318 0-2.013-1.162-3.505-2.515-4.478-3.96-.909-1.352-1.363-2.783-1.363-4.215v6c0 1.432.454 2.863 1.363 4.215zM53.89 117.21c-1.516-.874-2.748-1.851-3.75-2.882v6c1.002 1.03 2.234 2.008 3.75 2.883 8.938 5.16 23.563 5.16 32.5 0 1.516-.875 2.748-1.851 3.75-2.883v-6c-1.002 1.032-2.234 2.008-3.75 2.883-8.937 5.16-23.562 5.16-32.5 0zM53.287 103.704c-5.266 0-11.13 3.474-14.157 5.544-5.34 3.654-12.392 11.171-15.717 15.035-6.053 7.035-10.985 15.003-14.69 23.506-.304.859-.788 2.875.9 3.967.162.078.318.156.492.235l.01.004c1.94.647 3.259-2.421 3.259-2.421l.005.002c3.494-7.969 8.137-15.432 13.815-22.031 4.105-4.774 10.473-11.243 14.749-14.17 4.34-2.969 8.47-4.671 11.334-4.671 1.38 0 2.5-1.119 2.5-2.5s-1.12-2.5-2.5-2.5z" stroke="#33475C" stroke-width="5" stroke-linecap="round" stroke-linejoin="round"/>
        <path d="M18.363 148.71l3.564-6.97c1.69-3.304.378-7.368-2.926-9.058-3.305-1.691-7.368-.377-9.06 2.927l-3.563 6.97s-1.375 2.688 4.618 5.753c5.992 3.066 7.367.378 7.367.378zM128.654 108.862c-1.378-2.475-3.448-4.299-5.098-5.612-5.921-4.714-13.054-7.883-20.508-9.176l-4.168-.727c-.203.172-1.374.923-1.58 1.092l-3.528 1.95s.07 1.858 4.712 2.152h-.001c7.955.614 15.716 3.65 21.959 8.621 1.29 1.026 2.893 2.424 3.844 4.133 1.507 2.704 1.452 6.525-.143 9.974-1.76 3.811-5.07 6.856-7.404 8.814-8.843 7.416-19.536 12.33-30.922 14.21-2.567.423-5.545.752-8.161-.027-2.192-.652-4.627-2.36-5.037-4.365-.277-1.352-1.6-2.222-2.95-1.948-1.354.277-2.226 1.597-1.95 2.95.906 4.42 5.15 7.155 8.51 8.156 1.675.498 3.37.681 5.02.681 1.887 0 3.714-.238 5.383-.514 12.269-2.027 23.79-7.32 33.32-15.312 2.703-2.267 6.55-5.827 8.73-10.547 2.287-4.947 2.277-10.37-.028-14.505z" stroke="#33475C" stroke-width="5" stroke-linecap="round" stroke-linejoin="round"/>
        <path d="M70.14 2.5c-28.085 0-50.852 22.767-50.852 50.852 0 10.496 3.181 20.25 8.63 28.35 2.76 4.1 6.107 7.766 9.91 10.9h-.016s9.375 7.614 9.383 15.227h.002c0 1.644.511 3.286 1.554 4.837 1.117 1.659 2.83 3.212 5.14 4.545 8.936 5.16 23.561 5.16 32.5 0 2.31-1.333 4.021-2.886 5.137-4.545 1.044-1.551 1.555-3.193 1.555-4.837h.005c.008-7.613 9.383-15.227 9.383-15.227h-.018c3.802-3.134 7.15-6.8 9.908-10.9 5.45-8.1 8.631-17.854 8.631-28.35C120.992 25.267 98.224 2.5 70.14 2.5z" stroke="#33475C" stroke-width="5" stroke-linecap="round" stroke-linejoin="round"/>
        <path d="M47.382 21.477c8.494-3.503 14.451 1.083 13.237 10.19-1.214 9.11-9.157 19.426-17.65 22.928-8.495 3.503-14.452-1.083-13.238-10.19 1.214-9.108 9.157-19.425 17.651-22.928z" stroke="#33475C" stroke-width="5" stroke-linecap="round" stroke-linejoin="round"/>
        <path d="M29.046 33.745c4.792-5.829 10.883-4.817 13.534 2.247 2.653 7.065.901 17.614-3.89 23.443-4.793 5.829-10.884 4.818-13.537-2.247-2.65-7.065-.9-17.614 3.893-23.443z" stroke="#33475C" stroke-width="5" stroke-linecap="round" stroke-linejoin="round"/>
        <path d="M47.802 14.862c6.192-1.109 9.512 2.824 7.376 8.742-2.135 5.917-8.949 11.666-15.142 12.776-6.192 1.11-9.51-2.825-7.376-8.743 2.136-5.917 8.95-11.666 15.142-12.775zM101.493 76.718c3.96-.71 6.084 1.807 4.718 5.59-1.366 3.786-5.724 7.463-9.684 8.172-3.961.71-6.084-1.807-4.718-5.591 1.367-3.784 5.724-7.462 9.684-8.171zM63.915 8.518c2.155.64 2.583 2.428.952 3.975-1.632 1.546-4.73 2.29-6.886 1.65-2.155-.64-2.584-2.43-.952-3.977 1.632-1.545 4.73-2.288 6.886-1.649z" stroke="#33475C" stroke-width="5" stroke-linecap="round" stroke-linejoin="round"/>
        <path d="M105.698 74.275c2.562-1.207 4.464.113 4.229 2.936-.235 2.821-2.523 6.117-5.084 7.324-2.562 1.207-4.464-.114-4.23-2.936.235-2.82 2.523-6.117 5.085-7.324zM26.322 67.832c.285-2.23 1.982-2.94 3.77-1.578 1.79 1.36 3.02 4.3 2.734 6.53-.285 2.23-1.982 2.94-3.771 1.579-1.788-1.362-3.018-4.302-2.733-6.531zM114.575 68.782c-.176-1.374-1.221-1.812-2.323-.972-1.102.84-1.86 2.65-1.684 4.024.176 1.374 1.22 1.811 2.323.972 1.102-.839 1.86-2.65 1.684-4.024zM97.94 88.998c-.285-2.23-1.982-2.94-3.771-1.578-1.789 1.362-3.018 4.302-2.733 6.53.285 2.232 1.983 2.942 3.771 1.579 1.789-1.362 3.018-4.301 2.733-6.531zM88.855 104.73c-.727-.594-1.546-1.16-2.465-1.69-8.937-5.162-23.562-5.162-32.5 0-.92.53-1.738 1.096-2.465 1.69" stroke="#33475C" stroke-width="5" stroke-linecap="round" stroke-linejoin="round"/>
        <path d="M81.822 105.76c6.424 2.535 6.424 6.68 0 9.214-6.425 2.534-16.938 2.534-23.363 0-6.425-2.533-6.425-6.68 0-9.213 6.425-2.533 16.938-2.533 23.363 0z" stroke="#33475C" stroke-width="5" stroke-linecap="round" stroke-linejoin="round"/>
        <path d="M64.202 113.283c-.067-18.852-1.177-38.212-10.396-48.494-1.754-1.956-4.6-3.149-6.841-2.258-.631.251-1.145.815-1.462 1.27-.534.762-1.044 2.761-.77 4.95.66 5.268 2.324 11.053 7.656 11.376 3.833.231 8.54-3.3 12.852-6.673l1.938-12.032 5.269 16.714 3.81-22.542 3.304 9.171c4.685-3.688 10.175-4.83 13.867-10.434 1.169-1.776 1.978-3.782 2.55-5.724 1.578-5.355 2.388-12.486-.383-13.759-1.346-.617-3.237 1.984-4.307 3.973-1.07 1.988-1.603 4.101-2.105 6.144-2.997 12.21-5.853 24.39-8.566 36.538-1.717 7.686-3.394 15.533-3 22.272" stroke="#33475C" stroke-width="5" stroke-linecap="round" stroke-linejoin="round"/>
        <path d="M64.2 119.783c-3.577 0-6.485-2.895-6.498-6.477-.034-9.523-.36-18.997-1.788-27.054-1.287.303-2.595.446-3.916.363-5.32-.322-12.02-3.542-13.714-17.056-.445-3.546.28-7.18 1.893-9.485.815-1.164 2.235-2.728 4.385-3.583 4.648-1.84 10.305-.254 14.083 3.96.617.687 1.204 1.405 1.76 2.15l.356-2.213c.479-2.974 2.939-5.23 5.944-5.449 1.059-.075 2.069.103 2.988.488l.155-.917c.493-2.913 2.888-5.128 5.83-5.39 2.042-.17 3.98.601 5.315 2.02.62-2.578 1.248-5.154 1.879-7.725.538-2.19 1.207-4.915 2.693-7.675 5.063-9.409 11.03-7.583 12.74-6.8 2.715 1.246 8.527 5.835 3.91 21.504-.838 2.842-1.968 5.352-3.36 7.463-2.332 3.542-5.186 5.774-7.88 7.464-1.375 5.876-2.715 11.737-4.013 17.548-1.431 6.406-3.211 14.376-2.854 20.476.209 3.584-2.525 6.66-6.11 6.87-3.551.198-6.658-2.526-6.868-6.11-.355-6.058.679-12.52 2.165-19.575-.132.017-.265.031-.4.04-1.58.106-3.082-.358-4.288-1.24 1.778 9.522 2.06 20.007 2.095 29.88.013 3.59-2.887 6.51-6.477 6.523H64.2z" stroke="#33475C" stroke-width="5" stroke-linecap="round" stroke-linejoin="round"/>
        <path d="M77.587 158.75c0 4.112-3.335 7.446-7.447 7.446s-7.447-3.334-7.447-7.446 3.335-7.446 7.448-7.446c4.111 0 7.445 3.334 7.445 7.446" fill="#98ACC3"/>
        <path d="M77.587 158.75c0 4.112-3.335 7.446-7.447 7.446s-7.447-3.334-7.447-7.446 3.335-7.446 7.448-7.446c4.111 0 7.445 3.334 7.445 7.446z" stroke="#33475C" stroke-linecap="round" stroke-linejoin="round"/>
        <path d="M90.14 108.283h-40v40.92c0 1.432.454 2.863 1.363 4.215.973 1.445 2.465 2.798 4.478 3.96 7.787 4.496 20.53 4.496 28.318 0 2.013-1.162 3.505-2.515 4.478-3.96.908-1.352 1.354-2.783 1.354-4.215h.01v-40.92z" fill="#98ACC3"/>
        <path d="M90.14 108.283h-40v40.92c0 1.432.454 2.863 1.363 4.215.973 1.445 2.465 2.798 4.478 3.96 7.787 4.496 20.53 4.496 28.318 0 2.013-1.162 3.505-2.515 4.478-3.96.908-1.352 1.354-2.783 1.354-4.215h.01v-40.92z" stroke="#33475C" stroke-linecap="round" stroke-linejoin="round"/>
        <path d="M78.67 140.402c0 4.694-3.806 8.5-8.5 8.5-4.695 0-8.5-3.806-8.5-8.5 0-4.695 3.805-8.5 8.5-8.5 4.694 0 8.5 3.805 8.5 8.5" fill="#7B97B7"/>
        <path d="M78.67 140.402c0 4.694-3.806 8.5-8.5 8.5-4.695 0-8.5-3.806-8.5-8.5 0-4.695 3.805-8.5 8.5-8.5 4.694 0 8.5 3.805 8.5 8.5z" stroke="#33475C" stroke-linecap="round" stroke-linejoin="round"/>
        <path d="M75.67 140.402c0 3.037-2.463 5.5-5.5 5.5-3.038 0-5.5-2.463-5.5-5.5 0-3.038 2.462-5.5 5.5-5.5 3.037 0 5.5 2.462 5.5 5.5" fill="#98ACC3"/>
        <path d="M75.67 140.402c0 3.037-2.463 5.5-5.5 5.5-3.038 0-5.5-2.463-5.5-5.5 0-3.038 2.462-5.5 5.5-5.5 3.037 0 5.5 2.462 5.5 5.5z" stroke="#33475C" stroke-linecap="round" stroke-linejoin="round"/>
        <path d="M51.503 153.418c.973 1.445 2.465 2.798 4.478 3.96 7.787 4.496 20.53 4.496 28.318 0 2.013-1.162 3.505-2.515 4.477-3.96.91-1.352 1.355-2.783 1.355-4.215h.01v-6h-.01c0 1.432-.446 2.863-1.355 4.215-.972 1.445-2.464 2.798-4.477 3.96-7.788 4.496-20.53 4.496-28.318 0-2.013-1.162-3.505-2.515-4.478-3.96-.909-1.352-1.363-2.783-1.363-4.215v6c0 1.432.454 2.863 1.363 4.215" fill="#7B97B7"/>
        <path d="M51.503 153.418c.973 1.445 2.465 2.798 4.478 3.96 7.787 4.496 20.53 4.496 28.318 0 2.013-1.162 3.505-2.515 4.477-3.96.91-1.352 1.355-2.783 1.355-4.215h.01v-6h-.01c0 1.432-.446 2.863-1.355 4.215-.972 1.445-2.464 2.798-4.477 3.96-7.788 4.496-20.53 4.496-28.318 0-2.013-1.162-3.505-2.515-4.478-3.96-.909-1.352-1.363-2.783-1.363-4.215v6c0 1.432.454 2.863 1.363 4.215z" stroke="#33475C" stroke-linecap="round" stroke-linejoin="round"/>
        <path d="M53.89 117.21c-1.516-.874-2.748-1.851-3.75-2.882v6c1.002 1.03 2.234 2.008 3.75 2.883 8.938 5.16 23.563 5.16 32.5 0 1.516-.875 2.748-1.851 3.75-2.883v-6c-1.002 1.032-2.234 2.008-3.75 2.883-8.937 5.16-23.562 5.16-32.5 0" fill="#7B97B7"/>
        <path d="M53.89 117.21c-1.516-.874-2.748-1.851-3.75-2.882v6c1.002 1.03 2.234 2.008 3.75 2.883 8.938 5.16 23.563 5.16 32.5 0 1.516-.875 2.748-1.851 3.75-2.883v-6c-1.002 1.032-2.234 2.008-3.75 2.883-8.937 5.16-23.562 5.16-32.5 0z" stroke="#33475C" stroke-linecap="round" stroke-linejoin="round"/>
        <path d="M53.287 103.704c-5.266 0-11.13 3.474-14.157 5.544-5.34 3.654-12.392 11.171-15.717 15.035-6.053 7.035-10.985 15.003-14.69 23.506-.304.859-.788 2.875.9 3.967.162.078.318.156.492.235l.01.004c1.94.647 3.259-2.421 3.259-2.421l.005.002c3.494-7.969 8.137-15.432 13.815-22.031 4.105-4.774 10.473-11.243 14.749-14.17 4.34-2.969 8.47-4.671 11.334-4.671 1.38 0 2.5-1.119 2.5-2.5s-1.12-2.5-2.5-2.5" fill="#CBD6E3"/>
        <path d="M53.287 103.704c-5.266 0-11.13 3.474-14.157 5.544-5.34 3.654-12.392 11.171-15.717 15.035-6.053 7.035-10.985 15.003-14.69 23.506-.304.859-.788 2.875.9 3.967.162.078.318.156.492.235l.01.004c1.94.647 3.259-2.421 3.259-2.421l.005.002c3.494-7.969 8.137-15.432 13.815-22.031 4.105-4.774 10.473-11.243 14.749-14.17 4.34-2.969 8.47-4.671 11.334-4.671 1.38 0 2.5-1.119 2.5-2.5s-1.12-2.5-2.5-2.5z" stroke="#33475C" stroke-linecap="round" stroke-linejoin="round"/>
        <path d="M18.363 148.71l3.564-6.97c1.69-3.304.378-7.368-2.926-9.058-3.305-1.691-7.368-.377-9.06 2.927l-3.563 6.97s-1.375 2.688 4.618 5.753c5.992 3.066 7.367.378 7.367.378" fill="#CBD6E3"/>
        <path d="M18.363 148.71l3.564-6.97c1.69-3.304.378-7.368-2.926-9.058-3.305-1.691-7.368-.377-9.06 2.927l-3.563 6.97s-1.375 2.688 4.618 5.753c5.992 3.066 7.367.378 7.367.378z" stroke="#33475C" stroke-linecap="round" stroke-linejoin="round"/>
        <path d="M128.654 108.862c-1.378-2.475-3.448-4.299-5.098-5.612-5.921-4.714-13.054-7.883-20.508-9.176l-4.168-.727c-.203.172-1.374.923-1.58 1.092l-3.528 1.95s.07 1.858 4.712 2.152h-.001c7.955.614 15.716 3.65 21.959 8.621 1.29 1.026 2.893 2.424 3.844 4.133 1.507 2.704 1.452 6.525-.143 9.974-1.76 3.811-5.07 6.856-7.404 8.814-8.843 7.416-19.536 12.33-30.922 14.21-2.567.423-5.545.752-8.161-.027-2.192-.652-4.627-2.36-5.037-4.365-.277-1.352-1.6-2.222-2.95-1.948-1.354.277-2.226 1.597-1.95 2.95.906 4.42 5.15 7.155 8.51 8.156 1.675.498 3.37.681 5.02.681 1.887 0 3.714-.238 5.383-.514 12.269-2.027 23.79-7.32 33.32-15.312 2.703-2.267 6.55-5.827 8.73-10.547 2.287-4.947 2.277-10.37-.028-14.505" fill="#CBD6E3"/>
        <path d="M128.654 108.862c-1.378-2.475-3.448-4.299-5.098-5.612-5.921-4.714-13.054-7.883-20.508-9.176l-4.168-.727c-.203.172-1.374.923-1.58 1.092l-3.528 1.95s.07 1.858 4.712 2.152h-.001c7.955.614 15.716 3.65 21.959 8.621 1.29 1.026 2.893 2.424 3.844 4.133 1.507 2.704 1.452 6.525-.143 9.974-1.76 3.811-5.07 6.856-7.404 8.814-8.843 7.416-19.536 12.33-30.922 14.21-2.567.423-5.545.752-8.161-.027-2.192-.652-4.627-2.36-5.037-4.365-.277-1.352-1.6-2.222-2.95-1.948-1.354.277-2.226 1.597-1.95 2.95.906 4.42 5.15 7.155 8.51 8.156 1.675.498 3.37.681 5.02.681 1.887 0 3.714-.238 5.383-.514 12.269-2.027 23.79-7.32 33.32-15.312 2.703-2.267 6.55-5.827 8.73-10.547 2.287-4.947 2.277-10.37-.028-14.505z" stroke="#33475C" stroke-linecap="round" stroke-linejoin="round"/>
        <path d="M70.14 2.5c-28.085 0-50.852 22.767-50.852 50.852 0 10.496 3.181 20.25 8.63 28.35 2.76 4.1 6.107 7.766 9.91 10.9h-.016s9.375 7.614 9.383 15.227h.002c0 1.644.511 3.286 1.554 4.837 1.117 1.659 2.83 3.212 5.14 4.545 8.936 5.16 23.561 5.16 32.5 0 2.31-1.333 4.021-2.886 5.137-4.545 1.044-1.551 1.555-3.193 1.555-4.837h.005c.008-7.613 9.383-15.227 9.383-15.227h-.018c3.802-3.134 7.15-6.8 9.908-10.9 5.45-8.1 8.631-17.854 8.631-28.35C120.992 25.267 98.224 2.5 70.14 2.5" fill="#FBE1B2"/>
        <path d="M70.14 2.5c-28.085 0-50.852 22.767-50.852 50.852 0 10.496 3.181 20.25 8.63 28.35 2.76 4.1 6.107 7.766 9.91 10.9h-.016s9.375 7.614 9.383 15.227h.002c0 1.644.511 3.286 1.554 4.837 1.117 1.659 2.83 3.212 5.14 4.545 8.936 5.16 23.561 5.16 32.5 0 2.31-1.333 4.021-2.886 5.137-4.545 1.044-1.551 1.555-3.193 1.555-4.837h.005c.008-7.613 9.383-15.227 9.383-15.227h-.018c3.802-3.134 7.15-6.8 9.908-10.9 5.45-8.1 8.631-17.854 8.631-28.35C120.992 25.267 98.224 2.5 70.14 2.5z" stroke="#33475C" stroke-linecap="round" stroke-linejoin="round"/>
        <path d="M47.382 21.477c8.494-3.503 14.451 1.083 13.237 10.19-1.214 9.11-9.157 19.426-17.65 22.928-8.495 3.503-14.452-1.083-13.238-10.19 1.214-9.108 9.157-19.425 17.651-22.928" fill="#FFF" opacity=".35"/>
        <path d="M29.046 33.745c4.792-5.829 10.883-4.817 13.534 2.247 2.653 7.065.901 17.614-3.89 23.443-4.793 5.829-10.884 4.818-13.537-2.247-2.65-7.065-.9-17.614 3.893-23.443" fill="#FFF" opacity=".25"/>
        <path d="M47.802 14.862c6.192-1.109 9.512 2.824 7.376 8.742-2.135 5.917-8.949 11.666-15.142 12.776-6.192 1.11-9.51-2.825-7.376-8.743 2.136-5.917 8.95-11.666 15.142-12.775" fill="#FFF"/>
        <path d="M101.493 76.718c3.96-.71 6.084 1.807 4.718 5.59-1.366 3.786-5.724 7.463-9.684 8.172-3.961.71-6.084-1.807-4.718-5.591 1.367-3.784 5.724-7.462 9.684-8.171" fill="#FFF" opacity=".35"/>
        <path d="M63.915 8.518c2.155.64 2.583 2.428.952 3.975-1.632 1.546-4.73 2.29-6.886 1.65-2.155-.64-2.584-2.43-.952-3.977 1.632-1.545 4.73-2.288 6.886-1.649M105.698 74.275c2.562-1.207 4.464.113 4.229 2.936-.235 2.821-2.523 6.117-5.084 7.324-2.562 1.207-4.464-.114-4.23-2.936.235-2.82 2.523-6.117 5.085-7.324" fill="#FFF"/>
        <path d="M26.322 67.832c.285-2.23 1.982-2.94 3.77-1.578 1.79 1.36 3.02 4.3 2.734 6.53-.285 2.23-1.982 2.94-3.771 1.579-1.788-1.362-3.018-4.302-2.733-6.531" fill="#FFF" opacity=".35"/>
        <path d="M114.575 68.782c-.176-1.374-1.221-1.812-2.323-.972-1.102.84-1.86 2.65-1.684 4.024.176 1.374 1.22 1.811 2.323.972 1.102-.839 1.86-2.65 1.684-4.024" fill="#FFF"/>
        <path d="M97.94 88.998c-.285-2.23-1.982-2.94-3.771-1.578-1.789 1.362-3.018 4.302-2.733 6.53.285 2.232 1.983 2.942 3.771 1.579 1.789-1.362 3.018-4.301 2.733-6.531" fill="#FFF" opacity=".35"/>
        <path d="M88.855 104.73c-.727-.594-1.546-1.16-2.465-1.69-8.937-5.162-23.562-5.162-32.5 0-.92.53-1.738 1.096-2.465 1.69" stroke="#F6C364" stroke-width="2.5" opacity=".25" stroke-linecap="round" stroke-linejoin="round"/>
        <path d="M81.822 105.76c6.424 2.535 6.424 6.68 0 9.214-6.425 2.534-16.938 2.534-23.363 0-6.425-2.533-6.425-6.68 0-9.213 6.425-2.533 16.938-2.533 23.363 0z" stroke="#F6C364" stroke-width="2.5" opacity=".25" stroke-linecap="round" stroke-linejoin="round"/>
        <path d="M64.202 113.283c-.067-18.852-1.177-38.212-10.396-48.494-1.754-1.956-4.6-3.149-6.841-2.258-.631.251-1.145.815-1.462 1.27-.534.762-1.044 2.761-.77 4.95.66 5.268 2.324 11.053 7.656 11.376 3.833.231 8.54-3.3 12.852-6.673l1.938-12.032 5.269 16.714 3.81-22.542 3.304 9.171c4.685-3.688 10.175-4.83 13.867-10.434 1.169-1.776 1.978-3.782 2.55-5.724 1.578-5.355 2.388-12.486-.383-13.759-1.346-.617-3.237 1.984-4.307 3.973-1.07 1.988-1.603 4.101-2.105 6.144-2.997 12.21-5.853 24.39-8.566 36.538-1.717 7.686-3.394 15.533-3 22.272" stroke="#FFF" stroke-width="2" stroke-linecap="round" stroke-linejoin="round"/>
        <path d="M64.2 119.783c-3.577 0-6.485-2.895-6.498-6.477-.034-9.523-.36-18.997-1.788-27.054-1.287.303-2.595.446-3.916.363-5.32-.322-12.02-3.542-13.714-17.056-.445-3.546.28-7.18 1.893-9.485.815-1.164 2.235-2.728 4.385-3.583 4.648-1.84 10.305-.254 14.083 3.96.617.687 1.204 1.405 1.76 2.15l.356-2.213c.479-2.974 2.939-5.23 5.944-5.449 1.059-.075 2.069.103 2.988.488l.155-.917c.493-2.913 2.888-5.128 5.83-5.39 2.042-.17 3.98.601 5.315 2.02.62-2.578 1.248-5.154 1.879-7.725.538-2.19 1.207-4.915 2.693-7.675 5.063-9.409 11.03-7.583 12.74-6.8 2.715 1.246 8.527 5.835 3.91 21.504-.838 2.842-1.968 5.352-3.36 7.463-2.332 3.542-5.186 5.774-7.88 7.464-1.375 5.876-2.715 11.737-4.013 17.548-1.431 6.406-3.211 14.376-2.854 20.476.209 3.584-2.525 6.66-6.11 6.87-3.551.198-6.658-2.526-6.868-6.11-.355-6.058.679-12.52 2.165-19.575-.132.017-.265.031-.4.04-1.58.106-3.082-.358-4.288-1.24 1.778 9.522 2.06 20.007 2.095 29.88.013 3.59-2.887 6.51-6.477 6.523H64.2z" fill-opacity=".3" fill="#FFF"/>
    </g>
</svg>
