
<svg width="151" height="207" viewBox="0 0 151 207" xmlns="http://www.w3.org/2000/svg" xmlns:xlink="http://www.w3.org/1999/xlink">
    <defs>
        <path d="M.127 5.544c3.659.897 4.387 1.625 5.285 5.292.895-3.667 1.623-4.395 5.283-5.292-3.66-.897-4.388-1.625-5.283-5.29-.898 3.665-1.626 4.393-5.285 5.29z" id="a"/>
        <path d="M.005 11.099c7.148 1.754 8.568 3.174 10.318 10.331 1.751-7.157 3.169-8.577 10.318-10.331-7.149-1.752-8.567-3.173-10.318-10.33-1.75 7.157-3.17 8.578-10.318 10.33z" id="c"/>
        <path d="M.099 9.446c5.918 1.475 7.092 2.671 8.542 8.694 1.449-6.023 2.624-7.219 8.542-8.694-5.918-1.474-7.093-2.67-8.542-8.693C7.191 6.776 6.017 7.972.099 9.446z" id="e"/>
    </defs>
    <g fill="none" fill-rule="evenodd">
        <path d="M89.58 127.247c-2.51-1.45-6.62-1.45-9.131 0L8.635 168.709c-2.512 1.45-2.5 3.8.029 5.223l57.035 31.974c2.527 1.422 6.662 1.422 9.189 0l71.757-40.474c2.527-1.422 2.54-3.773.029-5.222L89.58 127.247z" fill-opacity=".2" fill="#40CEBB"/>
        <path d="M147.694 134.981v4.054c.061 1.142-.567 2.195-1.784 2.898l-70.356 40.618c-1.007.584-2.38.897-3.873.896-.192 0-.388-.018-.582-.028-.119.054-.244.091-.375.091-.035 0-.071-.002-.107-.006-1.376-.162-2.645-.56-3.669-1.15L9.715 149.31c-.994-.573-1.68-1.3-2.052-2.112v-10.226" fill="#FFF"/>
        <path d="M117.526 29.39v2" stroke="#34475B"/>
        <path d="M117.526 35.44v46.588" stroke="#34475B" stroke-dasharray="4.051,4.051"/>
        <path stroke="#34475B" d="M117.526 84.054v2l-1.741.984"/>
        <path d="M112.175 89.077l-41.51 23.45" stroke="#34475B" stroke-dasharray="4.146,4.146"/>
        <path d="M68.86 113.547l-1.742.983" stroke="#34475B"/>
        <g transform="translate(88 .621)">
            <mask id="b" fill="#fff">
                <use xlink:href="#a"/>
            </mask>
            <path fill="#FF8F52" mask="url(#b)" d="M-9.768 20.731h30.36V-9.641h-30.36z"/>
        </g>
        <g transform="translate(77 7.621)">
            <mask id="d" fill="#fff">
                <use xlink:href="#c"/>
            </mask>
            <path fill="#FB0" mask="url(#d)" d="M-15.021 36.455h50.687v-50.711h-50.687z"/>
        </g>
        <g transform="translate(129 2.621)">
            <mask id="f" fill="#fff">
                <use xlink:href="#e"/>
            </mask>
            <path fill-opacity=".5" fill="#00A4BF" mask="url(#f)" d="M-2.914 21.152h23.11V-2.259h-23.11z"/>
        </g>
        <g>
            <path d="M75.338 178.816l70.355-40.62c2.021-1.167 1.766-3.225-.569-4.572L87.891 100.58c-2.335-1.348-5.899-1.496-7.921-.328l-70.355 40.62c-2.022 1.166-1.766 3.223.569 4.572l57.234 33.043c2.334 1.35 5.898 1.496 7.92.33" fill="#E6EFF6"/>
            <path d="M75.338 178.816l70.355-40.62c2.021-1.167 1.766-3.225-.569-4.572L87.891 100.58c-2.335-1.348-5.899-1.496-7.921-.328l-70.355 40.62c-2.022 1.166-1.766 3.223.569 4.572l57.234 33.043c2.334 1.35 5.898 1.496 7.92.33z" stroke="#33475C" stroke-linecap="round" stroke-linejoin="round"/>
            <path d="M9.615 140.871l70.354-40.619c1.136-.655 2.757-.882 4.374-.729l5.476 44.033c.221 1.778-2.119 3.128-5.199 3.001l-76.266-3.162c-.266-.933.126-1.869 1.261-2.524" fill="#D4E7F7"/>
            <path d="M9.615 140.871l70.354-40.619c1.136-.655 2.757-.882 4.374-.729l5.476 44.033c.221 1.778-2.119 3.128-5.199 3.001l-76.266-3.162c-.266-.933.126-1.869 1.261-2.524z" stroke="#33475C"/>
            <path d="M101.719 113.632l-10.883 42.284-55.794-.68c-1.135.656-24.927-11.733-26.544-11.886L3.023 99.317c-.221-1.78 2.118-3.13 5.198-3.001l76.123 3.342c.266.934 18.51 13.319 17.375 13.974" fill="#D4E7F7"/>
            <path d="M101.719 113.632l-10.883 42.284-55.794-.68c-1.135.656-24.927-11.733-26.544-11.886L3.023 99.317c-.221-1.78 2.118-3.13 5.198-3.001l76.123 3.342c.266.934 18.51 13.319 17.375 13.974z" stroke="#33475C" stroke-width="2" stroke-linejoin="round"/>
            <path d="M80.812 54.415c0-5.5-3.901-7.757-8.67-5.015l-48.11 27.667c-4.768 2.743-8.67 9.486-8.67 14.986v37.801s0 27.921 32.725 27.921l23.045-1.344c5.49-.321 12.762-4.121 16.159-8.448l11.673-14.865c3.397-4.326 6.34-7.977 6.54-8.115-24.692-5.632-24.692-27.063-24.692-27.063V54.415z" fill="#FFF"/>
            <path d="M80.812 54.415c0-5.5-3.901-7.757-8.67-5.015l-48.11 27.667c-4.768 2.743-8.67 9.486-8.67 14.986v37.801s0 27.921 32.725 27.921l23.045-1.344c5.49-.321 12.762-4.121 16.159-8.448l11.673-14.865c3.397-4.326 6.34-7.977 6.54-8.115-24.692-5.632-24.692-27.063-24.692-27.063V54.415z" stroke="#33475C" stroke-width="2" stroke-linejoin="round"/>
            <path d="M75.113 178.686l70.355-40.62c1.135-.654 1.527-1.59 1.26-2.524l-76.265-3.162c-3.081-.127-5.42 1.224-5.2 3.002l5.477 44.033c1.617.153 3.238-.073 4.373-.728" fill="#FFF"/>
            <path d="M70.425 133.29c-1.687-.074-3.244.368-3.939 1.124-.251.273-.356.553-.319.855l5.382 43.28c1.196.025 2.337-.205 3.109-.651l70.355-40.62c.445-.256.722-.545.832-.861l-75.42-3.127zm.229 47.029l-.727-.068-5.566-44.757c-.104-.841.168-1.64.786-2.312 1.072-1.166 3.091-1.801 5.353-1.711l76.924 3.189.179.632c.399 1.394-.229 2.725-1.68 3.562l-70.355 40.62c-1.008.584-2.38.896-3.873.895-.342 0-.69-.016-1.041-.05z" fill="#33475C"/>
            <path d="M145.918 135.546l-.189-.004-58.207-2.413-4.179-33.605c.183.017.366.025.548.052 1.075.162 2.124.498 3 1.004l57.233 33.044c.876.505 1.46 1.11 1.74 1.732.028.063.032.127.054.19" fill="#E6EFF6"/>
            <path d="M88.331 132.252l55.57 2.303c-.075-.05-.153-.096-.233-.143l-57.232-33.044c-.588-.34-1.286-.601-2.043-.772l3.938 31.656zm57.563 4.205l-58.409-2.42c-.445-.017-.81-.354-.866-.796l-4.18-33.605c-.033-.272.142-.536.331-.734.188-.197.55-.291.814-.272.148.012.295.023.443.046 1.225.184 2.373.57 3.32 1.115l57.231 33.045c1.013.583 1.744 1.325 2.116 2.145.021.047.071.213.09.28.091.278.043.583-.128.819-.172.237-.446.377-.738.377h-.024z" fill="#33475C"/>
            <path d="M70.74 179.414l-.002.108c-1.186-.139-2.358-.478-3.32-1.035l-57.235-33.043c-1.024-.592-1.622-1.319-1.83-2.049l58.207 2.414 4.18 33.605z" fill="#E6EFF6"/>
            <path d="M10.219 144.385c.129.093.268.185.419.27L67.872 177.7c.527.304 1.147.545 1.826.713l-3.947-31.726-55.532-2.301zm60.412 36.04c-1.376-.16-2.645-.56-3.67-1.148L9.729 146.233c-1.184-.684-1.961-1.578-2.25-2.587-.08-.281-.02-.583.16-.813.183-.23.444-.355.753-.345l58.206 2.412c.445.018.81.355.867.797l4.179 33.606c.005.042.005.19.005.234-.003.257-.117.5-.311.67-.167.147-.38.226-.6.226-.035 0-.07-.002-.106-.007z" fill="#33475C"/>
            <path fill="#E5E5E5" d="M19.834 142.96l45.69 1.895-.788-6.348z"/>
            <path d="M147.694 134.981v4.054c.061 1.142-.567 2.195-1.784 2.898l-70.356 40.618c-1.007.584-2.38.897-3.873.896-.192 0-.388-.018-.582-.028-.119.054-.244.091-.375.091-.035 0-.071-.002-.107-.006-1.376-.162-2.645-.56-3.669-1.15L9.715 149.31c-.994-.573-1.68-1.3-2.052-2.112v-10.226" stroke="#33475C" stroke-width="2" stroke-linejoin="round"/>
            <path d="M148.694 134.981c-.373-.82-2.102-1.562-3.115-2.146L88.345 99.791c-.946-.545-2.094-.93-3.32-1.116-.147-.022-.293-.034-.441-.046-.09-.005-.191.006-.292.025l-2.459-.108c-.019-.32-.022-.536-.023-.606V54.415c0-3.033-1.082-5.329-3.046-6.464-1.963-1.136-4.493-.93-7.12.582L23.532 76.2c-5.056 2.908-9.17 10.02-9.17 15.852v3.532l-6.101-.268c-2.293-.096-4.333.554-5.423 1.738-.636.693-.916 1.518-.808 2.386l4.666 37.532h-.034v10.225c0 .143.031.286.091.416.465 1.015 1.316 1.902 2.46 2.563l57.234 33.044c1.142.657 2.543 1.1 4.046 1.277.076.01.153.013.23.013.173 0 .35-.027.525-.08.147.01.285.023.439.017 1.668 0 3.22-.366 4.365-1.029l70.357-40.62c1.534-.885 2.364-2.277 2.284-3.763v-4.054z" stroke="#33475C" stroke-width="4" stroke-linejoin="round"/>
            <path d="M40.95 84.874l28.427-16.412M40.95 94.874l19.937-11.511" stroke="#CED7DD" stroke-width="3" stroke-linecap="round"/>
            <path stroke="#00BEA5" stroke-width="3" stroke-linecap="round" stroke-linejoin="round" d="M32.937 89.485l-2.176 12.09-5.12-1.668"/>
            <path d="M45.95 114.874l28.427-16.412M45.95 124.874l19.937-11.511" stroke="#CED7DD" stroke-width="3" stroke-linecap="round"/>
            <path stroke="#00BEA5" stroke-width="3" stroke-linecap="round" stroke-linejoin="round" d="M37.937 119.485l-2.176 12.09-5.12-1.668"/>
            <path d="M116.525 61.588c-.735 0-1.458-.194-2.095-.561l-3.073-1.774h-3.548c-1.492 0-2.882-.804-3.629-2.095l-1.775-3.075-3.072-1.772c-1.29-.743-2.095-2.136-2.095-3.63v-3.547l-1.774-3.072c-.746-1.297-.745-2.901 0-4.191l1.774-3.074v-3.548c0-1.495.804-2.888 2.1-3.631l3.07-1.773 1.77-3.072c.75-1.293 2.14-2.096 3.631-2.096h3.548l3.072-1.774c.637-.367 1.361-.56 2.096-.56.735 0 1.46.193 2.098.562l3.07 1.772h3.548c1.494 0 2.887.805 3.631 2.1l1.77 3.068 3.075 1.774c1.291.742 2.095 2.135 2.095 3.63v3.548l1.776 3.073c.746 1.29.746 2.898 0 4.193l-1.774 3.069v3.548c0 1.494-.806 2.887-2.1 3.63l-3.069 1.773-1.773 3.072c-.748 1.294-2.139 2.098-3.63 2.098h-3.547l-3.074 1.774c-.63.366-1.357.56-2.096.56" fill="#00BEA5"/>
            <path d="M116.525 61.588c-.735 0-1.458-.194-2.095-.561l-3.073-1.774h-3.548c-1.492 0-2.882-.804-3.629-2.095l-1.775-3.075-3.072-1.772c-1.29-.743-2.095-2.136-2.095-3.63v-3.547l-1.774-3.072c-.746-1.297-.745-2.901 0-4.191l1.774-3.074v-3.548c0-1.495.804-2.888 2.1-3.631l3.07-1.773 1.77-3.072c.75-1.293 2.14-2.096 3.631-2.096h3.548l3.072-1.774c.637-.367 1.361-.56 2.096-.56.735 0 1.46.193 2.098.562l3.07 1.772h3.548c1.494 0 2.887.805 3.631 2.1l1.77 3.068 3.075 1.774c1.291.742 2.095 2.135 2.095 3.63v3.548l1.776 3.073c.746 1.29.746 2.898 0 4.193l-1.774 3.069v3.548c0 1.494-.806 2.887-2.1 3.63l-3.069 1.773-1.773 3.072c-.748 1.294-2.139 2.098-3.63 2.098h-3.547l-3.074 1.774c-.63.366-1.357.56-2.096.56" stroke="#33475C" stroke-linecap="round" stroke-linejoin="round"/>
            <path d="M116.525 61.588c-.735 0-1.458-.194-2.095-.561l-3.073-1.774h-3.548c-1.492 0-2.882-.804-3.629-2.095l-1.775-3.075-3.072-1.772c-1.29-.743-2.095-2.136-2.095-3.63v-3.547l-1.774-3.072c-.746-1.297-.745-2.901 0-4.191l1.774-3.074v-3.548c0-1.495.804-2.888 2.1-3.631l3.07-1.773 1.77-3.072c.75-1.293 2.14-2.096 3.631-2.096h3.548l3.072-1.774c.637-.367 1.361-.56 2.096-.56.735 0 1.46.193 2.098.562l3.07 1.772h3.548c1.494 0 2.887.805 3.631 2.1l1.77 3.068 3.075 1.774c1.291.742 2.095 2.135 2.095 3.63v3.548l1.776 3.073c.746 1.29.746 2.898 0 4.193l-1.774 3.069v3.548c0 1.494-.806 2.887-2.1 3.63l-3.069 1.773-1.773 3.072c-.748 1.294-2.139 2.098-3.63 2.098h-3.547l-3.074 1.774c-.63.366-1.357.56-2.096.56" stroke="#33475C" stroke-width="4" stroke-linecap="round" stroke-linejoin="round"/>
            <path d="M127.994 39.075l-6.568-6.555c-.64-.638-1.675-.638-2.313 0-.64.64-.64 1.675 0 2.314l3.762 3.762h-15.728c-.907 0-1.642.735-1.642 1.642 0 .907.735 1.642 1.642 1.642h15.715l-3.75 3.762c-.657.64-.672 1.69-.033 2.347s1.69.672 2.347.033l6.568-6.647c.632-.642.632-1.672 0-2.314v.014z" fill="#FFF"/>
        </g>
    </g>
</svg>
