
<svg width="157" height="222" viewBox="0 0 157 222" xmlns="http://www.w3.org/2000/svg" xmlns:xlink="http://www.w3.org/1999/xlink">
    <defs>
        <path id="a" d="M0 .82h123.746V72.3H0z"/>
    </defs>
    <g fill="none" fill-rule="evenodd">
        <g transform="translate(0 149.271)">
            <mask id="b" fill="#fff">
                <use xlink:href="#a"/>
            </mask>
            <path d="M58.09 71.49L1.405 38.747c-2.081-1.202-1.817-3.321.585-4.708l55.516-32.07c2.403-1.388 6.07-1.54 8.15-.338l56.687 32.746c2.08 1.202 1.817 3.32-.584 4.707L66.24 71.153c-2.403 1.388-6.07 1.539-8.15.338" fill-opacity=".5" fill="#F9D28C" mask="url(#b)"/>
        </g>
        <path d="M77.622 181.677c8.93 5.159 8.93 13.6 0 18.759-8.93 5.16-23.544 5.16-32.474 0-8.932-5.159-8.932-13.6 0-18.759 8.93-5.16 23.544-5.16 32.474 0z" stroke="#33475C" stroke-width="5.25" stroke-linecap="round" stroke-linejoin="round"/>
        <path d="M84.117 148.191c12.503 7.223 12.503 19.042 0 26.263-12.502 7.223-32.961 7.223-45.465 0-12.503-7.221-12.503-19.04 0-26.263 12.504-7.223 32.963-7.223 45.465 0z" stroke="#33475C" stroke-width="5.25" stroke-linecap="round" stroke-linejoin="round"/>
        <path d="M81.682 149.598c11.163 6.449 11.163 17.001 0 23.45-11.163 6.447-29.431 6.447-40.594 0-11.163-6.449-11.163-17.001 0-23.45 11.163-6.448 29.43-6.448 40.594 0z" stroke="#33475C" stroke-width="5.25" stroke-linecap="round" stroke-linejoin="round"/>
        <path stroke="#33475C" stroke-width="5.25" stroke-linecap="round" stroke-linejoin="round" d="M90.054 161.323l-5.734 30.204H38.45l-5.734-30.204zM95.788 142.989l-2.293 18.334h-64.22l-2.293-18.334z"/>
        <path d="M85.741 157.058c-13.396 7.74-35.317 7.74-48.713 0-5.429-3.136-8.657-7.081-9.685-11.18l1.932 15.445c0 4.76 3.126 9.52 9.378 13.132 12.502 7.222 32.961 7.222 45.465 0 6.25-3.612 9.376-8.372 9.376-13.132l1.933-15.444c-1.029 4.098-4.257 8.043-9.686 11.179z" stroke="#33475C" stroke-width="5.25" stroke-linecap="round" stroke-linejoin="round"/>
        <path d="M38.652 174.455c-1.509-.872-2.83-1.812-3.975-2.801l3.772 19.873h.02c.196 3.241 2.42 6.449 6.679 8.91 8.93 5.159 23.544 5.159 32.474 0 4.26-2.461 6.482-5.669 6.679-8.91h.019l3.773-19.873c-1.145.99-2.466 1.93-3.976 2.8-12.502 7.224-32.962 7.224-45.465 0zM85.741 128.92c13.396 7.738 13.396 20.4 0 28.139-13.396 7.738-35.317 7.738-48.713 0-13.396-7.739-13.396-20.401 0-28.14 13.396-7.738 35.317-7.738 48.713 0z" stroke="#33475C" stroke-width="5.25" stroke-linecap="round" stroke-linejoin="round"/>
        <path d="M61.385 129.235c8.052 0 15.815 1.817 21.298 4.984 4.441 2.565 6.99 5.762 6.99 8.77 0 3.007-2.549 6.204-6.99 8.77-5.483 3.168-13.246 4.984-21.298 4.984-8.053 0-15.815-1.816-21.299-4.984-4.44-2.566-6.989-5.762-6.989-8.77s2.548-6.205 6.989-8.77c5.484-3.167 13.246-4.984 21.299-4.984" stroke="#33475C" stroke-width="5.25" stroke-linecap="round" stroke-linejoin="round"/>
        <path d="M89.642 142.428c-1.456-1.963-3.38-4.038-5.77-3.733-.432.055-.884.187-1.288.025-.426-.172-.66-.616-.905-1.003-1.196-1.88-3.49-2.998-5.707-2.783-1.25.12-2.503.628-3.725.34-1.085-.255-1.93-1.091-2.939-1.563-1.26-.59-2.699-.582-4.094-.535l-.013-.012c-1.375-.973-3.256-1.036-4.839-.455-.484.178-.94.414-1.376.687-1.018.035-2.035.07-3.053.107-1.749.061-3.907.412-4.454 2.077-2.029-.492-4.261-.066-5.965 1.14-.418.296-.81.639-1.274.858-.634.3-1.353.345-2.048.44-4.19.561-8.938 3.686-8.348 7.857 0 0 0 .002.002.003 1.057 2.08 3.205 4.127 6.24 5.881 5.483 3.168 13.247 4.984 21.3 4.984 8.051 0 15.814-1.816 21.297-4.984 1.735-1.003 3.177-2.102 4.294-3.247 1.745-1.788 2.695-3.69 2.695-5.523 0-.187-.01-.373-.03-.56z" stroke="#33475C" stroke-width="5.25" stroke-linecap="round" stroke-linejoin="round"/>
        <path d="M89.642 142.428c-1.456-1.963-3.38-4.038-5.77-3.733-.432.055-.884.187-1.288.025-.426-.172-.66-.616-.905-1.003-1.196-1.88-3.49-2.998-5.707-2.783-1.25.12-2.503.628-3.725.34-1.085-.255-1.93-1.091-2.939-1.563-1.26-.59-2.699-.582-4.094-.535l-.013-.012c-1.375-.973-3.256-1.036-4.839-.455-.484.178-.94.414-1.376.687-1.018.035-2.035.07-3.053.107-1.749.061-3.907.412-4.454 2.077-2.029-.492-4.261-.066-5.965 1.14-.418.296-.81.639-1.274.858-.634.3-1.353.345-2.048.44-4.19.561-8.938 3.686-8.348 7.857 0 0 0 .002.002.003 1.057 2.08 3.205 4.127 6.24 5.881 5.483 3.168 13.247 4.984 21.3 4.984 8.051 0 15.814-1.816 21.297-4.984 1.735-1.003 3.177-2.102 4.294-3.247 1.745-1.788 2.695-3.69 2.695-5.523 0-.187-.01-.373-.03-.56z" stroke="#33475C" stroke-width="5.25" stroke-linecap="round" stroke-linejoin="round"/>
        <path d="M63.684 149.164c.392-.227.392-.598 0-.825-.393-.228-1.037-.228-1.431 0-.393.227-.393.598 0 .825.394.228 1.038.228 1.43 0zM66.168 150.513c.393-.227.393-.598 0-.826-.392-.227-1.036-.227-1.43 0-.393.228-.393.599 0 .826.394.227 1.038.227 1.43 0zM63.11 151.279c.393-.229.393-.6 0-.827-.392-.228-1.037-.228-1.43 0-.394.227-.394.598 0 .827.393.227 1.038.227 1.43 0zM76.518 116.576s-14.602 3.304-13.738 16.527c0 0 12.294.656 13.738-16.527z" stroke="#33475C" stroke-width="5.25" stroke-linecap="round" stroke-linejoin="round"/>
        <path d="M58.16 129.309c1.384 1.935 3.247 5.946 3.43 13.588.511.079 1.138.058 1.915-.155-.27-4.282-1.005-9.76-2.918-13.538 0 0 4.656-12.24-12.11-14.854 0 0-.55 13.122 9.683 14.959z" stroke="#33475C" stroke-width="5.25" stroke-linecap="round" stroke-linejoin="round"/>
        <path d="M77.622 181.677c8.93 5.159 8.93 13.6 0 18.759-8.93 5.16-23.544 5.16-32.474 0-8.932-5.159-8.932-13.6 0-18.759 8.93-5.16 23.544-5.16 32.474 0z" stroke="#33475C" stroke-width="1.05" stroke-linecap="round" stroke-linejoin="round"/>
        <path d="M84.117 148.191c12.503 7.223 12.503 19.042 0 26.263-12.502 7.223-32.961 7.223-45.465 0-12.503-7.221-12.503-19.04 0-26.263 12.504-7.223 32.963-7.223 45.465 0z" stroke="#33475C" stroke-width="1.05" stroke-linecap="round" stroke-linejoin="round"/>
        <path d="M81.682 149.598c11.163 6.449 11.163 17.001 0 23.45-11.163 6.447-29.431 6.447-40.594 0-11.163-6.449-11.163-17.001 0-23.45 11.163-6.448 29.43-6.448 40.594 0z" stroke="#33475C" stroke-width="1.05" stroke-linecap="round" stroke-linejoin="round"/>
        <path stroke="#33475C" stroke-width="1.05" stroke-linecap="round" stroke-linejoin="round" d="M90.054 161.323l-5.734 30.204H38.45l-5.734-30.204zM95.788 142.989l-2.293 18.334h-64.22l-2.293-18.334z"/>
        <path d="M85.741 157.058c-13.396 7.74-35.317 7.74-48.713 0-5.429-3.136-8.657-7.081-9.685-11.18l1.932 15.445c0 4.76 3.126 9.52 9.378 13.132 12.502 7.222 32.961 7.222 45.465 0 6.25-3.612 9.376-8.372 9.376-13.132l1.933-15.444c-1.029 4.098-4.257 8.043-9.686 11.179" fill="#FF8F52"/>
        <path d="M85.741 157.058c-13.396 7.74-35.317 7.74-48.713 0-5.429-3.136-8.657-7.081-9.685-11.18l1.932 15.445c0 4.76 3.126 9.52 9.378 13.132 12.502 7.222 32.961 7.222 45.465 0 6.25-3.612 9.376-8.372 9.376-13.132l1.933-15.444c-1.029 4.098-4.257 8.043-9.686 11.179z" stroke="#33475C" stroke-width="1.05" stroke-linecap="round" stroke-linejoin="round"/>
        <path d="M38.652 174.455c-1.509-.872-2.83-1.812-3.975-2.801l3.772 19.873h.02c.196 3.241 2.42 6.449 6.679 8.91 8.93 5.159 23.544 5.159 32.474 0 4.26-2.461 6.482-5.669 6.679-8.91h.019l3.773-19.873c-1.145.99-2.466 1.93-3.976 2.8-12.502 7.224-32.962 7.224-45.465 0" fill="#FF8F52"/>
        <path d="M38.652 174.455c-1.509-.872-2.83-1.812-3.975-2.801l3.772 19.873h.02c.196 3.241 2.42 6.449 6.679 8.91 8.93 5.159 23.544 5.159 32.474 0 4.26-2.461 6.482-5.669 6.679-8.91h.019l3.773-19.873c-1.145.99-2.466 1.93-3.976 2.8-12.502 7.224-32.962 7.224-45.465 0z" stroke="#33475C" stroke-width="1.05" stroke-linecap="round" stroke-linejoin="round"/>
        <path d="M85.741 128.92c13.396 7.738 13.396 20.4 0 28.139-13.396 7.738-35.317 7.738-48.713 0-13.396-7.739-13.396-20.401 0-28.14 13.396-7.738 35.317-7.738 48.713 0" fill="#FFAB7D"/>
        <path d="M85.741 128.92c13.396 7.738 13.396 20.4 0 28.139-13.396 7.738-35.317 7.738-48.713 0-13.396-7.739-13.396-20.401 0-28.14 13.396-7.738 35.317-7.738 48.713 0z" stroke="#33475C" stroke-width="1.05" stroke-linecap="round" stroke-linejoin="round"/>
        <path d="M61.385 129.235c8.052 0 15.815 1.817 21.298 4.984 4.441 2.565 6.99 5.762 6.99 8.77 0 3.007-2.549 6.204-6.99 8.77-5.483 3.168-13.246 4.984-21.298 4.984-8.053 0-15.815-1.816-21.299-4.984-4.44-2.566-6.989-5.762-6.989-8.77s2.548-6.205 6.989-8.77c5.484-3.167 13.246-4.984 21.299-4.984" fill="#FF8F52"/>
        <path d="M61.385 129.235c8.052 0 15.815 1.817 21.298 4.984 4.441 2.565 6.99 5.762 6.99 8.77 0 3.007-2.549 6.204-6.99 8.77-5.483 3.168-13.246 4.984-21.298 4.984-8.053 0-15.815-1.816-21.299-4.984-4.44-2.566-6.989-5.762-6.989-8.77s2.548-6.205 6.989-8.77c5.484-3.167 13.246-4.984 21.299-4.984" stroke="#33475C" stroke-width="1.05" stroke-linecap="round" stroke-linejoin="round"/>
        <path d="M89.642 142.428c-1.456-1.963-3.38-4.038-5.77-3.733-.432.055-.884.187-1.288.025-.426-.172-.66-.616-.905-1.003-1.196-1.88-3.49-2.998-5.707-2.783-1.25.12-2.503.628-3.725.34-1.085-.255-1.93-1.091-2.939-1.563-1.26-.59-2.699-.582-4.094-.535l-.013-.012c-1.375-.973-3.256-1.036-4.839-.455-.484.178-.94.414-1.376.687-1.018.035-2.035.07-3.053.107-1.749.061-3.907.412-4.454 2.077-2.029-.492-4.261-.066-5.965 1.14-.418.296-.81.639-1.274.858-.634.3-1.353.345-2.048.44-4.19.561-8.938 3.686-8.348 7.857 0 0 0 .002.002.003 1.057 2.08 3.205 4.127 6.24 5.881 5.483 3.168 13.247 4.984 21.3 4.984 8.051 0 15.814-1.816 21.297-4.984 1.735-1.003 3.177-2.102 4.294-3.247 1.745-1.788 2.695-3.69 2.695-5.523 0-.187-.01-.373-.03-.56" fill="#A0683A"/>
        <path d="M89.642 142.428c-1.456-1.963-3.38-4.038-5.77-3.733-.432.055-.884.187-1.288.025-.426-.172-.66-.616-.905-1.003-1.196-1.88-3.49-2.998-5.707-2.783-1.25.12-2.503.628-3.725.34-1.085-.255-1.93-1.091-2.939-1.563-1.26-.59-2.699-.582-4.094-.535l-.013-.012c-1.375-.973-3.256-1.036-4.839-.455-.484.178-.94.414-1.376.687-1.018.035-2.035.07-3.053.107-1.749.061-3.907.412-4.454 2.077-2.029-.492-4.261-.066-5.965 1.14-.418.296-.81.639-1.274.858-.634.3-1.353.345-2.048.44-4.19.561-8.938 3.686-8.348 7.857 0 0 0 .002.002.003 1.057 2.08 3.205 4.127 6.24 5.881 5.483 3.168 13.247 4.984 21.3 4.984 8.051 0 15.814-1.816 21.297-4.984 1.735-1.003 3.177-2.102 4.294-3.247 1.745-1.788 2.695-3.69 2.695-5.523 0-.187-.01-.373-.03-.56z" stroke="#33475C" stroke-width="1.05" stroke-linecap="round" stroke-linejoin="round"/>
        <path d="M89.642 142.428c-1.456-1.963-3.38-4.038-5.77-3.733-.432.055-.884.187-1.288.025-.426-.172-.66-.616-.905-1.003-1.196-1.88-3.49-2.998-5.707-2.783-1.25.12-2.503.628-3.725.34-1.085-.255-1.93-1.091-2.939-1.563-1.26-.59-2.699-.582-4.094-.535l-.013-.012c-1.375-.973-3.256-1.036-4.839-.455-.484.178-.94.414-1.376.687-1.018.035-2.035.07-3.053.107-1.749.061-3.907.412-4.454 2.077-2.029-.492-4.261-.066-5.965 1.14-.418.296-.81.639-1.274.858-.634.3-1.353.345-2.048.44-4.19.561-8.938 3.686-8.348 7.857 0 0 0 .002.002.003 1.057 2.08 3.205 4.127 6.24 5.881 5.483 3.168 13.247 4.984 21.3 4.984 8.051 0 15.814-1.816 21.297-4.984 1.735-1.003 3.177-2.102 4.294-3.247 1.745-1.788 2.695-3.69 2.695-5.523 0-.187-.01-.373-.03-.56z" stroke="#33475C" stroke-width="1.05" stroke-linecap="round" stroke-linejoin="round"/>
        <path d="M63.684 149.164c.392-.227.392-.598 0-.825-.393-.228-1.037-.228-1.431 0-.393.227-.393.598 0 .825.394.228 1.038.228 1.43 0M66.168 150.513c.393-.227.393-.598 0-.826-.392-.227-1.036-.227-1.43 0-.393.228-.393.599 0 .826.394.227 1.038.227 1.43 0M63.11 151.279c.393-.229.393-.6 0-.827-.392-.228-1.037-.228-1.43 0-.394.227-.394.598 0 .827.393.227 1.038.227 1.43 0" fill="#FFF"/>
        <path d="M76.518 116.576s-14.602 3.304-13.738 16.527c0 0 12.294.656 13.738-16.527" fill="#00BEA5"/>
        <path d="M76.518 116.576s-14.602 3.304-13.738 16.527c0 0 12.294.656 13.738-16.527z" stroke="#33475C" stroke-width="1.05" stroke-linecap="round" stroke-linejoin="round"/>
        <path d="M58.16 129.309c1.384 1.935 3.247 5.946 3.43 13.588.511.079 1.138.058 1.915-.155-.27-4.282-1.005-9.76-2.918-13.538 0 0 4.656-12.24-12.11-14.854 0 0-.55 13.122 9.683 14.959" fill="#00BEA5"/>
        <path d="M58.16 129.309c1.384 1.935 3.247 5.946 3.43 13.588.511.079 1.138.058 1.915-.155-.27-4.282-1.005-9.76-2.918-13.538 0 0 4.656-12.24-12.11-14.854 0 0-.55 13.122 9.683 14.959z" stroke="#33475C" stroke-width="1.05" stroke-linecap="round" stroke-linejoin="round"/>
        <path d="M140.248 55.268c-.361.303-.796.53-1.286.647-1.686.406-3.383-.635-3.787-2.323-.352-1.467-1.302-5.888-2.307-10.569-.954-4.438-1.94-9.029-2.274-10.423-1.622-6.764-3.299-13.76-6.709-19.728-1.016-1.78-1.925-2.764-2.778-3.006-.774-.22-1.857.155-2.631.927-.866.857-1.5 2.183-1.881 3.942-.803 3.706-.172 7.713 1.733 10.992.873 1.5.365 3.424-1.137 4.298-1.5.872-3.423.362-4.295-1.138-2.683-4.62-3.573-10.264-2.442-15.484.645-2.97 1.856-5.354 3.604-7.082 2.383-2.357 5.827-3.34 8.772-2.502 3.343.955 5.317 3.843 6.51 5.933 3.857 6.75 5.64 14.189 7.364 21.382.352 1.466 1.3 5.887 2.306 10.568.954 4.44 1.94 9.03 2.275 10.423.288 1.199-.153 2.402-1.037 3.143z" stroke="#33475C" stroke-width="5.25" stroke-linecap="round" stroke-linejoin="round"/>
        <path d="M151.565 57.51l-26.911-29.396L86.186 60.41l24.26 31.62c2.504 3.264 7.167 4.76 13.307 3.676 11.887-2.097 24.992-13.098 29.12-24.448 2.132-5.861 1.47-10.714-1.308-13.748zM99.34 89.42c.138 1.307-.27 2.338-1.034 2.933-.485.377-1.113.58-1.837.562-.342-.007-.706-.064-1.086-.173-2.443-.703-4.663-3.348-4.93-5.878-.13-1.224.22-2.206.89-2.813.502-.454 1.184-.7 1.98-.683.342.008.707.064 1.086.174 2.443.703 4.663 3.35 4.93 5.879z" stroke="#33475C" stroke-width="5.25" stroke-linecap="round" stroke-linejoin="round"/>
        <path d="M97.471 83.194c3.335 5.138 2.722 12.086-1.369 15.52-4.09 3.435-10.108 2.053-13.443-3.085-3.334-5.137-2.722-12.086 1.368-15.519 4.09-3.435 10.11-2.054 13.444 3.084zM98.636 63.849c-5.745 1.014-10.107-.386-12.45-3.44-2.192-2.858-2.615-7.163-.749-12.297C89.3 37.495 101.56 27.203 112.68 25.241c5.377-.947 9.542.217 11.974 2.873 2.599 2.839 3.219 7.38 1.224 12.864-3.863 10.617-16.121 20.91-27.242 22.87z" stroke="#33475C" stroke-width="5.25" stroke-linecap="round" stroke-linejoin="round"/>
        <path d="M98.693 36.24c4.607-3.867 9.937-6.56 14.624-7.387 3.853-.679 7-.046 8.635 1.738 1.069 1.17 1.54 2.89 1.411 4.956l-29.172 5.147c1.343-1.564 2.853-3.07 4.502-4.454zM85.542 90.382c.457.706.374 1.66-.189 2.132-.561.472-1.388.283-1.847-.423-.458-.707-.374-1.661.188-2.134.562-.471 1.39-.282 1.848.425zM90.113 95.437c.458.707.374 1.662-.188 2.133-.562.472-1.39.283-1.848-.423-.458-.707-.374-1.662.189-2.134.56-.471 1.39-.283 1.847.424zM86.428 83.742c.458.707.374 1.662-.189 2.134-.56.471-1.388.283-1.847-.423-.459-.708-.374-1.662.188-2.134.562-.471 1.39-.283 1.848.423zM91.083 88.557c.458.706.374 1.66-.188 2.133-.562.472-1.39.282-1.848-.424-.459-.706-.374-1.66.189-2.132.56-.473 1.39-.283 1.847.423zM96.362 86.231c.458.706.374 1.662-.188 2.134-.561.471-1.389.282-1.847-.424-.46-.707-.374-1.662.187-2.133.562-.472 1.39-.283 1.848.423zM95.929 93.56c.458.707.374 1.662-.189 2.133-.561.472-1.388.283-1.847-.423-.459-.706-.374-1.662.187-2.133.563-.472 1.39-.283 1.849.424zM92.069 81.913c.458.706.374 1.66-.189 2.132-.56.473-1.388.283-1.847-.423-.459-.706-.374-1.662.187-2.134.563-.471 1.391-.282 1.849.425z" stroke="#33475C" stroke-width="5.25" stroke-linecap="round" stroke-linejoin="round"/>
        <path d="M118.684 84.073c-.38-.109-.744-.166-1.086-.173l-17.788-.39c-.968-1.231-2.191-2.284-3.53-3.101-1.784-1.091-4.086-1.853-5.542-2.033l.002.01.003.001c.632.123 1.257.316 1.868.58.003 0 .007.002.01.004.293.127.582.27.868.43l.05.025c.268.15.53.318.788.496.032.023.066.042.097.064.238.17.47.353.699.544.048.041.098.077.147.118.208.18.41.378.608.578.06.062.125.117.185.18.188.198.366.412.544.627.063.075.13.144.193.224.222.282.434.578.636.889.012.016.025.031.035.048.057.088.104.18.158.27 1.813 2.945 2.36 6.434 1.73 9.515v.002c-.216 1.057-.573 2.06-1.063 2.98-.051.097-.1.193-.155.286-.085.15-.176.292-.268.436-.082.125-.165.248-.251.37-.085.12-.17.235-.26.35-.116.146-.239.288-.362.426-.077.086-.15.174-.23.257-.21.216-.426.423-.657.62-.003.001-.007.005-.01.009-.222.185-.452.352-.685.51 1.968-1.174 3.95-2.69 5.044-4.588.298-.515.548-1.059.76-1.618l19.522.428c.724.016 1.352-.185 1.837-.563.765-.594 1.172-1.625 1.034-2.932-.268-2.53-2.488-5.175-4.931-5.879z" stroke="#33475C" stroke-width="5.25" stroke-linecap="round" stroke-linejoin="round"/>
        <path d="M96.28 80.409c-1.784-1.091-4.087-1.853-5.542-2.032l.002.01c2.537.49 4.997 2.136 6.731 4.807 3.335 5.138 2.722 12.086-1.368 15.52-.222.186-.454.354-.687.512 1.969-1.174 3.951-2.69 5.045-4.589 1.31-2.27 1.83-5.04 1.166-7.577-.738-2.821-2.859-5.13-5.346-6.651z" stroke="#33475C" stroke-width="5.25" stroke-linecap="round" stroke-linejoin="round"/>
        <path d="M118.684 84.073c-.38-.109-.744-.166-1.086-.173l-17.788-.39c-.968-1.231-2.191-2.284-3.53-3.101-1.784-1.091-4.086-1.853-5.542-2.033l.002.01.003.001c.632.123 1.257.316 1.868.58.003 0 .007.002.01.004.293.127.582.27.868.43l.05.025c.268.15.53.318.788.496.032.023.066.042.097.064.238.17.47.353.699.544.048.041.098.077.147.118.208.18.41.378.608.578.06.062.125.117.185.18.188.198.366.412.544.627.063.075.13.144.193.224.222.282.434.578.636.889.012.016.025.031.035.048.057.088.104.18.158.27 1.813 2.945 2.36 6.434 1.73 9.515v.002c-.216 1.057-.573 2.06-1.063 2.98-.051.097-.1.193-.155.286-.085.15-.176.292-.268.436-.082.125-.165.248-.251.37-.085.12-.17.235-.26.35-.116.146-.239.288-.362.426-.077.086-.15.174-.23.257-.21.216-.426.423-.657.62-.003.001-.007.005-.01.009-.222.185-.452.352-.685.51 1.968-1.174 3.95-2.69 5.044-4.588.298-.515.548-1.059.76-1.618l19.522.428c.724.016 1.352-.185 1.837-.563.765-.594 1.172-1.625 1.034-2.932-.268-2.53-2.488-5.175-4.931-5.879z" stroke="#33475C" stroke-width="5.25" stroke-linecap="round" stroke-linejoin="round"/>
        <path d="M140.248 55.268c-.361.303-.796.53-1.286.647-1.686.406-3.383-.635-3.787-2.323-.352-1.467-1.302-5.888-2.307-10.569-.954-4.438-1.94-9.029-2.274-10.423-1.622-6.764-3.299-13.76-6.709-19.728-1.016-1.78-1.925-2.764-2.778-3.006-.774-.22-1.857.155-2.631.927-.866.857-1.5 2.183-1.881 3.942-.803 3.706-.172 7.713 1.733 10.992.873 1.5.365 3.424-1.137 4.298-1.5.872-3.423.362-4.295-1.138-2.683-4.62-3.573-10.264-2.442-15.484.645-2.97 1.856-5.354 3.604-7.082 2.383-2.357 5.827-3.34 8.772-2.502 3.343.955 5.317 3.843 6.51 5.933 3.857 6.75 5.64 14.189 7.364 21.382.352 1.466 1.3 5.887 2.306 10.568.954 4.44 1.94 9.03 2.275 10.423.288 1.199-.153 2.402-1.037 3.143" fill="#F6C364"/>
        <path d="M140.248 55.268c-.361.303-.796.53-1.286.647-1.686.406-3.383-.635-3.787-2.323-.352-1.467-1.302-5.888-2.307-10.569-.954-4.438-1.94-9.029-2.274-10.423-1.622-6.764-3.299-13.76-6.709-19.728-1.016-1.78-1.925-2.764-2.778-3.006-.774-.22-1.857.155-2.631.927-.866.857-1.5 2.183-1.881 3.942-.803 3.706-.172 7.713 1.733 10.992.873 1.5.365 3.424-1.137 4.298-1.5.872-3.423.362-4.295-1.138-2.683-4.62-3.573-10.264-2.442-15.484.645-2.97 1.856-5.354 3.604-7.082 2.383-2.357 5.827-3.34 8.772-2.502 3.343.955 5.317 3.843 6.51 5.933 3.857 6.75 5.64 14.189 7.364 21.382.352 1.466 1.3 5.887 2.306 10.568.954 4.44 1.94 9.03 2.275 10.423.288 1.199-.153 2.402-1.037 3.143z" stroke="#33475C" stroke-width="1.05" stroke-linecap="round" stroke-linejoin="round"/>
        <path d="M151.565 57.51l-26.911-29.396L86.186 60.41l24.26 31.62c2.504 3.264 7.167 4.76 13.307 3.676 11.887-2.097 24.992-13.098 29.12-24.448 2.132-5.861 1.47-10.714-1.308-13.748" fill="#F6C364"/>
        <path d="M151.565 57.51l-26.911-29.396L86.186 60.41l24.26 31.62c2.504 3.264 7.167 4.76 13.307 3.676 11.887-2.097 24.992-13.098 29.12-24.448 2.132-5.861 1.47-10.714-1.308-13.748zM99.34 89.42c.138 1.307-.27 2.338-1.034 2.933-.485.377-1.113.58-1.837.562-.342-.007-.706-.064-1.086-.173-2.443-.703-4.663-3.348-4.93-5.878-.13-1.224.22-2.206.89-2.813.502-.454 1.184-.7 1.98-.683.342.008.707.064 1.086.174 2.443.703 4.663 3.35 4.93 5.879z" stroke="#33475C" stroke-width="1.05" stroke-linecap="round" stroke-linejoin="round"/>
        <path d="M97.471 83.194c3.335 5.138 2.722 12.086-1.369 15.52-4.09 3.435-10.108 2.053-13.443-3.085-3.334-5.137-2.722-12.086 1.368-15.519 4.09-3.435 10.11-2.054 13.444 3.084" fill="#FBE1B2"/>
        <path d="M97.471 83.194c3.335 5.138 2.722 12.086-1.369 15.52-4.09 3.435-10.108 2.053-13.443-3.085-3.334-5.137-2.722-12.086 1.368-15.519 4.09-3.435 10.11-2.054 13.444 3.084z" stroke="#33475C" stroke-width="1.05" stroke-linecap="round" stroke-linejoin="round"/>
        <path d="M98.636 63.849c-5.745 1.014-10.107-.386-12.45-3.44-2.192-2.858-2.615-7.163-.749-12.297C89.3 37.495 101.56 27.203 112.68 25.241c5.377-.947 9.542.217 11.974 2.873 2.599 2.839 3.219 7.38 1.224 12.864-3.863 10.617-16.121 20.91-27.242 22.87" fill="#FBE1B2"/>
        <path d="M98.636 63.849c-5.745 1.014-10.107-.386-12.45-3.44-2.192-2.858-2.615-7.163-.749-12.297C89.3 37.495 101.56 27.203 112.68 25.241c5.377-.947 9.542.217 11.974 2.873 2.599 2.839 3.219 7.38 1.224 12.864-3.863 10.617-16.121 20.91-27.242 22.87z" stroke="#33475C" stroke-width="1.05" stroke-linecap="round" stroke-linejoin="round"/>
        <path d="M98.693 36.24c4.607-3.867 9.937-6.56 14.624-7.387 3.853-.679 7-.046 8.635 1.738 1.069 1.17 1.54 2.89 1.411 4.956l-29.172 5.147c1.343-1.564 2.853-3.07 4.502-4.454" fill="#DCAF59"/>
        <path d="M98.693 36.24c4.607-3.867 9.937-6.56 14.624-7.387 3.853-.679 7-.046 8.635 1.738 1.069 1.17 1.54 2.89 1.411 4.956l-29.172 5.147c1.343-1.564 2.853-3.07 4.502-4.454z" stroke="#33475C" stroke-width="1.05" stroke-linecap="round" stroke-linejoin="round"/>
        <path d="M85.542 90.382c.457.706.374 1.66-.189 2.132-.561.472-1.388.283-1.847-.423-.458-.707-.374-1.661.188-2.134.562-.471 1.39-.282 1.848.425M90.113 95.437c.458.707.374 1.662-.188 2.133-.562.472-1.39.283-1.848-.423-.458-.707-.374-1.662.189-2.134.56-.471 1.39-.283 1.847.424M86.428 83.742c.458.707.374 1.662-.189 2.134-.56.471-1.388.283-1.847-.423-.459-.708-.374-1.662.188-2.134.562-.471 1.39-.283 1.848.423M91.083 88.557c.458.706.374 1.66-.188 2.133-.562.472-1.39.282-1.848-.424-.459-.706-.374-1.66.189-2.132.56-.473 1.39-.283 1.847.423M96.362 86.231c.458.706.374 1.662-.188 2.134-.561.471-1.389.282-1.847-.424-.46-.707-.374-1.662.187-2.133.562-.472 1.39-.283 1.848.423M95.929 93.56c.458.707.374 1.662-.189 2.133-.561.472-1.388.283-1.847-.423-.459-.706-.374-1.662.187-2.133.563-.472 1.39-.283 1.849.424M92.069 81.913c.458.706.374 1.66-.189 2.132-.56.473-1.388.283-1.847-.423-.459-.706-.374-1.662.187-2.134.563-.471 1.391-.282 1.849.425" fill="#DCAF59"/>
        <path d="M118.684 84.073c-.38-.109-.744-.166-1.086-.173l-17.788-.39c-.968-1.231-2.191-2.284-3.53-3.101-1.784-1.091-4.086-1.853-5.542-2.033l.002.01.003.001c.632.123 1.257.316 1.868.58.003 0 .007.002.01.004.293.127.582.27.868.43l.05.025c.268.15.53.318.788.496.032.023.066.042.097.064.238.17.47.353.699.544.048.041.098.077.147.118.208.18.41.378.608.578.06.062.125.117.185.18.188.198.366.412.544.627.063.075.13.144.193.224.222.282.434.578.636.889.012.016.025.031.035.048.057.088.104.18.158.27 1.813 2.945 2.36 6.434 1.73 9.515v.002c-.216 1.057-.573 2.06-1.063 2.98-.051.097-.1.193-.155.286-.085.15-.176.292-.268.436-.082.125-.165.248-.251.37-.085.12-.17.235-.26.35-.116.146-.239.288-.362.426-.077.086-.15.174-.23.257-.21.216-.426.423-.657.62-.003.001-.007.005-.01.009-.222.185-.452.352-.685.51 1.968-1.174 3.95-2.69 5.044-4.588.298-.515.548-1.059.76-1.618l19.522.428c.724.016 1.352-.185 1.837-.563.765-.594 1.172-1.625 1.034-2.932-.268-2.53-2.488-5.175-4.931-5.879" fill="#F6C364"/>
        <path d="M118.684 84.073c-.38-.109-.744-.166-1.086-.173l-17.788-.39c-.968-1.231-2.191-2.284-3.53-3.101-1.784-1.091-4.086-1.853-5.542-2.033l.002.01.003.001c.632.123 1.257.316 1.868.58.003 0 .007.002.01.004.293.127.582.27.868.43l.05.025c.268.15.53.318.788.496.032.023.066.042.097.064.238.17.47.353.699.544.048.041.098.077.147.118.208.18.41.378.608.578.06.062.125.117.185.18.188.198.366.412.544.627.063.075.13.144.193.224.222.282.434.578.636.889.012.016.025.031.035.048.057.088.104.18.158.27 1.813 2.945 2.36 6.434 1.73 9.515v.002c-.216 1.057-.573 2.06-1.063 2.98-.051.097-.1.193-.155.286-.085.15-.176.292-.268.436-.082.125-.165.248-.251.37-.085.12-.17.235-.26.35-.116.146-.239.288-.362.426-.077.086-.15.174-.23.257-.21.216-.426.423-.657.62-.003.001-.007.005-.01.009-.222.185-.452.352-.685.51 1.968-1.174 3.95-2.69 5.044-4.588.298-.515.548-1.059.76-1.618l19.522.428c.724.016 1.352-.185 1.837-.563.765-.594 1.172-1.625 1.034-2.932-.268-2.53-2.488-5.175-4.931-5.879z" stroke="#33475C" stroke-width="1.05" stroke-linecap="round" stroke-linejoin="round"/>
        <path d="M96.28 80.409c-1.784-1.091-4.087-1.853-5.542-2.032l.002.01c2.537.49 4.997 2.136 6.731 4.807 3.335 5.138 2.722 12.086-1.368 15.52-.222.186-.454.354-.687.512 1.969-1.174 3.951-2.69 5.045-4.589 1.31-2.27 1.83-5.04 1.166-7.577-.738-2.821-2.859-5.13-5.346-6.651" fill="#F6C364"/>
        <path d="M118.684 84.073c-.38-.109-.744-.166-1.086-.173l-17.788-.39c-.968-1.231-2.191-2.284-3.53-3.101-1.784-1.091-4.086-1.853-5.542-2.033l.002.01.003.001c.632.123 1.257.316 1.868.58.003 0 .007.002.01.004.293.127.582.27.868.43l.05.025c.268.15.53.318.788.496.032.023.066.042.097.064.238.17.47.353.699.544.048.041.098.077.147.118.208.18.41.378.608.578.06.062.125.117.185.18.188.198.366.412.544.627.063.075.13.144.193.224.222.282.434.578.636.889.012.016.025.031.035.048.057.088.104.18.158.27 1.813 2.945 2.36 6.434 1.73 9.515v.002c-.216 1.057-.573 2.06-1.063 2.98-.051.097-.1.193-.155.286-.085.15-.176.292-.268.436-.082.125-.165.248-.251.37-.085.12-.17.235-.26.35-.116.146-.239.288-.362.426-.077.086-.15.174-.23.257-.21.216-.426.423-.657.62-.003.001-.007.005-.01.009-.222.185-.452.352-.685.51 1.968-1.174 3.95-2.69 5.044-4.588.298-.515.548-1.059.76-1.618l19.522.428c.724.016 1.352-.185 1.837-.563.765-.594 1.172-1.625 1.034-2.932-.268-2.53-2.488-5.175-4.931-5.879z" stroke="#33475C" stroke-width="1.05" stroke-linecap="round" stroke-linejoin="round"/>
        <path d="M43.596 118.6c-.38.92-.747 1.86-1.102 2.82M54.65 102.055c-1.68 2-3.304 4.156-4.85 6.475M66.122 91.12c-2.352 1.79-4.681 3.79-6.945 6.027M75.639 84.983c-2.01 1.088-4.045 2.308-6.076 3.675M91.017 121.763c-.179 1.175-.328 2.371-.445 3.581M92.676 113.854c-.335 1.252-.645 2.537-.922 3.85M95.794 104.515c-.658 1.647-1.3 3.395-1.898 5.23M63.272 107.27c-.828 1.318-1.63 2.689-2.403 4.117M67.436 101.322c-.597.767-1.186 1.557-1.767 2.37M74.157 93.822c-1.262 1.224-2.517 2.531-3.754 3.926M73.93 107.226c-.994 1.905-1.96 3.915-2.885 6.033M78.493 99.426c-.662 1.015-1.323 2.069-1.976 3.164M82.998 114.002c-.713 2.075-1.387 4.27-2.007 6.588M86.186 105.98c-.496 1.09-.984 2.224-1.461 3.405M37.927 139.905c-.248 1.799-.447 3.733-.558 5.762M40.832 127.299s-.843 2.313-1.71 6.087M78.116 145.65c.011.863.043 1.707.098 2.52M78.753 134.7c-.214 1.916-.406 4.012-.523 6.13M79.961 126.235s-.207 1.127-.483 2.95M50.818 144.692c-.048 1.147-.072 2.348-.065 3.595M52.289 132.824c-.284 1.308-.653 3.25-.957 5.683" stroke="#7CD1DF" stroke-width="2.1" stroke-linecap="round" stroke-linejoin="round"/>
    </g>
</svg>
